<svg xmlns="http://www.w3.org/2000/svg" xml:space="preserve" viewBox="0 0 100 100"><path d="M99.4 50c0 8-2 15.8-5.5 22.5-.2.3-.3.5-.5.8L90 71.4c.2-.3.3-.5.5-.8 3.2-6.2 5-13.2 5-20.6 0-10.8-3.8-20.6-10-28.5l-5.9 4.9c-.2-.2-.3-.5-.6-.6-6.4-7.6-15.6-12.6-26.1-13.4l-.6 9.7H50c-15.5 0-28.1 12.6-28.1 28.1S34.5 78.3 50 78.3c9.3 0 17.4-4.6 22.6-11.4.2-.3.3-.5.5-.8l7.9 5.6 6.2 4.4 3.2 2.3c-.2.3-.3.5-.5.8-9 12.3-23.5 20.3-39.7 20.3C22.8 99.5.6 77.3.6 50S22.8.5 50.1.5c.9 0 1.8 0 2.7.2h.9c13.8.9 26 7.6 34.3 17.6.2.2.3.5.6.6 6.7 8.6 10.8 19.4 10.8 31.1" style="fill:#007794"/></svg>