<svg xmlns="http://www.w3.org/2000/svg" viewBox="0 0 1227 1227" width="1227" height="1227">
  <defs>
    <linearGradient id="grad" x1="240" y1="1010" x2="880" y2="120" gradientUnits="userSpaceOnUse">
      <stop offset="0%" stop-color="#13c6f4"/>
      <stop offset="55%" stop-color="#35e2d5"/>
      <stop offset="100%" stop-color="#39ef8a"/>
    </linearGradient>
  </defs>
  <rect x="0" y="0" width="1227" height="1227" fill="#000000"/>
  <path d="M 628.0 462.5 L 591.0 461.5 L 567.0 453.5 L 553.0 444.5 L 536.5 427.0 L 524.5 406.0 L 510.5 352.0 L 509.5 276.0 L 514.5 243.0 L 524.5 212.0 L 536.5 191.0 L 553.0 173.5 L 569.0 163.5 L 597.0 155.5 L 628.0 155.5 L 652.0 161.5 L 669.0 170.5 L 686.5 187.0 L 705.5 222.0 L 716.5 276.0 L 715.5 352.0 L 701.5 406.0 L 689.5 427.0 L 674.0 443.5 L 652.0 456.5 Z M 618.5 409.0 L 631.0 404.5 L 640.5 395.0 L 648.5 378.0 L 655.5 332.0 L 655.5 286.0 L 651.5 252.0 L 642.5 226.0 L 631.0 213.5 L 618.0 208.5 L 608.0 208.5 L 595.0 213.5 L 585.5 223.0 L 577.5 240.0 L 570.5 286.0 L 570.5 332.0 L 574.5 366.0 L 583.5 392.0 L 601.0 407.5 Z" fill="url(#grad)" fill-rule="evenodd"/>
  <path d="M 377.0 457.5 L 270.5 457.0 L 271.0 159.5 L 368.0 159.5 L 407.0 163.5 L 426.0 169.5 L 444.0 180.5 L 461.5 205.0 L 466.5 229.0 L 465.5 251.0 L 461.5 265.0 L 445.0 286.5 L 428.0 295.5 L 415.5 298.0 L 450.0 311.5 L 463.5 325.0 L 471.5 340.0 L 476.5 362.0 L 476.5 389.0 L 471.5 411.0 L 462.5 427.0 L 439.0 445.5 L 414.0 453.5 Z M 374.5 275.0 L 389.0 272.5 L 402.5 262.0 L 407.5 245.0 L 402.5 221.0 L 395.0 213.5 L 382.0 208.5 L 329.0 207.5 L 328.5 275.0 Z M 377.5 409.0 L 402.0 402.5 L 412.5 391.0 L 416.5 359.0 L 410.5 340.0 L 400.0 329.5 L 387.0 324.5 L 329.0 322.5 L 328.5 409.0 Z" fill="url(#grad)" fill-rule="evenodd"/>
  <path d="M 886.0 457.5 L 827.5 457.0 L 827.5 213.0 L 753.0 212.5 L 753.0 160.5 L 962.5 161.0 L 962.0 212.5 L 886.5 213.0 Z" fill="url(#grad)" fill-rule="evenodd"/>
  <path d="M 979.0 558.5 L 247.0 558.5 L 246.5 541.0 L 979.0 540.5 Z" fill="url(#grad)" fill-rule="evenodd"/>
  <path d="M 397.0 1115.5 L 394.5 1114.0 L 633.5 856.0 L 523.5 743.0 L 831.0 613.5 L 828.5 620.0 L 635.5 855.0 L 745.5 968.0 Z" fill="url(#grad)" fill-rule="evenodd"/>
</svg>
