<svg xmlns="http://www.w3.org/2000/svg" viewBox="0 0 1227 1227" width="1227" height="1227" role="img" aria-label="INFO logo">
  <defs>
    <linearGradient id="grad" gradientUnits="userSpaceOnUse" x1="254" y1="220" x2="972" y2="220">
      <stop offset="0%" stop-color="#20c3ef"/>
      <stop offset="100%" stop-color="#39ef92"/>
    </linearGradient>
  </defs>
  <rect x="0" y="0" width="1227" height="1227" fill="#000000"/>
  <path d="M 279,224 L 279,262 L 321,262 L 322,263 L 322,403 L 321,404 L 279,404 L 279,442 L 408,442 L 408,404 L 366,404 L 365,403 L 365,263 L 366,262 L 408,262 L 408,224 Z" fill="url(#grad)" fill-rule="evenodd"/>
  <path d="M 451,224 L 451,442 L 489,442 L 489,290 L 490,289 L 491,290 L 491,291 L 492,292 L 492,294 L 493,295 L 493,297 L 494,298 L 494,299 L 495,300 L 495,302 L 496,303 L 496,304 L 497,305 L 497,307 L 498,308 L 498,310 L 499,311 L 499,312 L 500,313 L 500,315 L 501,316 L 501,317 L 502,318 L 502,320 L 503,321 L 503,323 L 504,324 L 504,325 L 505,326 L 505,328 L 506,329 L 506,330 L 507,331 L 507,333 L 508,334 L 508,336 L 509,337 L 509,338 L 510,339 L 510,341 L 511,342 L 511,343 L 512,344 L 512,346 L 513,347 L 513,349 L 514,350 L 514,351 L 515,352 L 515,354 L 516,355 L 516,356 L 517,357 L 517,359 L 518,360 L 518,361 L 519,362 L 519,364 L 520,365 L 520,367 L 521,368 L 521,369 L 522,370 L 522,372 L 523,373 L 523,374 L 524,375 L 524,377 L 525,378 L 525,380 L 526,381 L 526,382 L 527,383 L 527,385 L 528,386 L 528,387 L 529,388 L 529,390 L 530,391 L 530,393 L 531,394 L 531,395 L 532,396 L 532,398 L 533,399 L 533,400 L 534,401 L 534,403 L 535,404 L 535,406 L 536,407 L 536,408 L 537,409 L 537,411 L 538,412 L 538,413 L 539,414 L 539,416 L 540,417 L 540,419 L 541,420 L 541,421 L 542,422 L 542,424 L 543,425 L 543,426 L 544,427 L 544,429 L 545,430 L 545,432 L 546,433 L 546,434 L 547,435 L 547,437 L 548,438 L 548,439 L 549,440 L 549,442 L 595,442 L 595,224 L 557,224 L 557,376 L 556,377 L 555,376 L 555,375 L 554,374 L 554,372 L 553,371 L 553,369 L 552,368 L 552,367 L 551,366 L 551,364 L 550,363 L 550,362 L 549,361 L 549,359 L 548,358 L 548,356 L 547,355 L 547,354 L 546,353 L 546,351 L 545,350 L 545,349 L 544,348 L 544,346 L 543,345 L 543,343 L 542,342 L 542,341 L 541,340 L 541,338 L 540,337 L 540,336 L 539,335 L 539,333 L 538,332 L 538,330 L 537,329 L 537,328 L 536,327 L 536,325 L 535,324 L 535,322 L 534,321 L 534,320 L 533,319 L 533,317 L 532,316 L 532,315 L 531,314 L 531,312 L 530,311 L 530,309 L 529,308 L 529,307 L 528,306 L 528,304 L 527,303 L 527,302 L 526,301 L 526,299 L 525,298 L 525,296 L 524,295 L 524,294 L 523,293 L 523,291 L 522,290 L 522,289 L 521,288 L 521,286 L 520,285 L 520,283 L 519,282 L 519,281 L 518,280 L 518,278 L 517,277 L 517,276 L 516,275 L 516,273 L 515,272 L 515,270 L 514,269 L 514,268 L 513,267 L 513,265 L 512,264 L 512,262 L 511,261 L 511,260 L 510,259 L 510,257 L 509,256 L 509,255 L 508,254 L 508,252 L 507,251 L 507,249 L 506,248 L 506,247 L 505,246 L 505,244 L 504,243 L 504,242 L 503,241 L 503,239 L 502,238 L 502,236 L 501,235 L 501,234 L 500,233 L 500,231 L 499,230 L 499,229 L 498,228 L 498,226 L 497,225 L 497,224 Z" fill="url(#grad)" fill-rule="evenodd"/>
  <path d="M 640,224 L 640,442 L 683,442 L 683,348 L 684,347 L 767,347 L 767,309 L 684,309 L 683,308 L 683,263 L 684,262 L 775,262 L 775,224 Z" fill="url(#grad)" fill-rule="evenodd"/>
  <path d="M 877,220 L 876,221 L 868,221 L 867,222 L 863,222 L 862,223 L 860,223 L 859,224 L 856,224 L 855,225 L 854,225 L 853,226 L 851,226 L 850,227 L 849,227 L 848,228 L 847,228 L 845,230 L 844,230 L 842,232 L 841,232 L 838,235 L 837,235 L 830,242 L 830,243 L 826,247 L 826,248 L 824,250 L 824,251 L 823,252 L 823,253 L 821,255 L 821,256 L 820,257 L 820,258 L 819,259 L 819,260 L 818,261 L 818,263 L 817,264 L 817,265 L 816,266 L 816,268 L 815,269 L 815,271 L 814,272 L 814,274 L 813,275 L 813,277 L 812,278 L 812,281 L 811,282 L 811,285 L 810,286 L 810,291 L 809,292 L 809,297 L 808,298 L 808,305 L 807,306 L 807,318 L 806,319 L 806,348 L 807,349 L 807,361 L 808,362 L 808,369 L 809,370 L 809,375 L 810,376 L 810,380 L 811,381 L 811,384 L 812,385 L 812,388 L 813,389 L 813,392 L 814,393 L 814,395 L 815,396 L 815,398 L 816,399 L 816,400 L 817,401 L 817,403 L 818,404 L 818,405 L 819,406 L 819,407 L 820,408 L 820,409 L 821,410 L 821,411 L 822,412 L 822,413 L 823,414 L 823,415 L 825,417 L 825,418 L 828,421 L 828,422 L 840,434 L 841,434 L 843,436 L 844,436 L 845,437 L 846,437 L 848,439 L 849,439 L 850,440 L 852,440 L 853,441 L 854,441 L 855,442 L 857,442 L 858,443 L 860,443 L 861,444 L 865,444 L 866,445 L 871,445 L 872,446 L 893,446 L 894,445 L 900,445 L 901,444 L 904,444 L 905,443 L 907,443 L 908,442 L 910,442 L 911,441 L 913,441 L 914,440 L 915,440 L 916,439 L 917,439 L 918,438 L 919,438 L 921,436 L 922,436 L 924,434 L 925,434 L 929,430 L 930,430 L 934,426 L 934,425 L 938,421 L 938,420 L 940,418 L 940,417 L 942,415 L 942,414 L 943,413 L 943,412 L 945,410 L 945,409 L 946,408 L 946,406 L 947,405 L 947,404 L 948,403 L 948,402 L 949,401 L 949,399 L 950,398 L 950,396 L 951,395 L 951,393 L 952,392 L 952,390 L 953,389 L 953,386 L 954,385 L 954,382 L 955,381 L 955,377 L 956,376 L 956,371 L 957,370 L 957,364 L 958,363 L 958,352 L 959,351 L 959,316 L 958,315 L 958,304 L 957,303 L 957,296 L 956,295 L 956,291 L 955,290 L 955,286 L 954,285 L 954,281 L 953,280 L 953,278 L 952,277 L 952,274 L 951,273 L 951,271 L 950,270 L 950,268 L 949,267 L 949,266 L 948,265 L 948,263 L 947,262 L 947,261 L 946,260 L 946,259 L 945,258 L 945,257 L 944,256 L 944,255 L 943,254 L 943,253 L 941,251 L 941,250 L 939,248 L 939,247 L 936,244 L 936,243 L 927,234 L 926,234 L 923,231 L 922,231 L 921,230 L 920,230 L 918,228 L 917,228 L 916,227 L 915,227 L 914,226 L 912,226 L 911,225 L 910,225 L 909,224 L 907,224 L 906,223 L 903,223 L 902,222 L 898,222 L 897,221 L 889,221 L 888,220 Z M 877,260 L 878,259 L 887,259 L 888,260 L 890,260 L 891,261 L 893,261 L 894,262 L 895,262 L 903,270 L 903,271 L 905,273 L 905,274 L 906,275 L 906,276 L 907,277 L 907,278 L 908,279 L 908,281 L 909,282 L 909,285 L 910,286 L 910,289 L 911,290 L 911,294 L 912,295 L 912,300 L 913,301 L 913,310 L 914,311 L 914,355 L 913,356 L 913,365 L 912,366 L 912,372 L 911,373 L 911,377 L 910,378 L 910,381 L 909,382 L 909,384 L 908,385 L 908,387 L 907,388 L 907,389 L 906,390 L 906,392 L 904,394 L 904,395 L 902,397 L 902,398 L 897,403 L 896,403 L 894,405 L 893,405 L 892,406 L 890,406 L 889,407 L 876,407 L 875,406 L 873,406 L 872,405 L 871,405 L 869,403 L 868,403 L 863,398 L 863,397 L 861,395 L 861,394 L 860,393 L 860,392 L 859,391 L 859,390 L 858,389 L 858,388 L 857,387 L 857,385 L 856,384 L 856,381 L 855,380 L 855,377 L 854,376 L 854,372 L 853,371 L 853,365 L 852,364 L 852,354 L 851,353 L 851,314 L 852,313 L 852,303 L 853,302 L 853,296 L 854,295 L 854,291 L 855,290 L 855,286 L 856,285 L 856,283 L 857,282 L 857,280 L 858,279 L 858,277 L 859,276 L 859,275 L 860,274 L 860,273 L 862,271 L 862,270 L 869,263 L 870,263 L 872,261 L 874,261 L 875,260 Z" fill="url(#grad)" fill-rule="evenodd"/>
  <path d="M 254,504 L 254,517 L 972,517 L 972,504 Z" fill="url(#grad)" fill-rule="evenodd"/>
  <path d="M 831,614 L 830,615 L 829,615 L 828,616 L 827,616 L 826,617 L 824,617 L 823,618 L 822,618 L 821,619 L 820,619 L 819,620 L 817,620 L 816,621 L 815,621 L 814,622 L 812,622 L 811,623 L 810,623 L 809,624 L 808,624 L 807,625 L 805,625 L 804,626 L 803,626 L 802,627 L 801,627 L 800,628 L 798,628 L 797,629 L 795,629 L 794,630 L 793,630 L 792,631 L 791,631 L 790,632 L 789,632 L 788,633 L 786,633 L 785,634 L 783,634 L 782,635 L 781,635 L 780,636 L 779,636 L 778,637 L 777,637 L 776,638 L 774,638 L 773,639 L 772,639 L 771,640 L 769,640 L 768,641 L 767,641 L 766,642 L 765,642 L 764,643 L 762,643 L 761,644 L 760,644 L 759,645 L 757,645 L 756,646 L 755,646 L 754,647 L 752,647 L 751,648 L 750,648 L 749,649 L 748,649 L 747,650 L 745,650 L 744,651 L 743,651 L 742,652 L 740,652 L 739,653 L 738,653 L 737,654 L 736,654 L 735,655 L 733,655 L 732,656 L 731,656 L 730,657 L 729,657 L 728,658 L 726,658 L 725,659 L 724,659 L 723,660 L 721,660 L 720,661 L 719,661 L 718,662 L 717,662 L 716,663 L 714,663 L 713,664 L 712,664 L 711,665 L 709,665 L 708,666 L 707,666 L 706,667 L 705,667 L 704,668 L 703,668 L 702,669 L 700,669 L 699,670 L 698,670 L 697,671 L 695,671 L 694,672 L 693,672 L 692,673 L 691,673 L 690,674 L 688,674 L 687,675 L 686,675 L 685,676 L 683,676 L 682,677 L 681,677 L 680,678 L 679,678 L 678,679 L 676,679 L 675,680 L 674,680 L 673,681 L 671,681 L 670,682 L 669,682 L 668,683 L 667,683 L 666,684 L 665,684 L 664,685 L 662,685 L 661,686 L 660,686 L 659,687 L 657,687 L 656,688 L 655,688 L 654,689 L 652,689 L 651,690 L 650,690 L 649,691 L 648,691 L 647,692 L 645,692 L 644,693 L 643,693 L 642,694 L 641,694 L 640,695 L 638,695 L 637,696 L 636,696 L 635,697 L 633,697 L 632,698 L 631,698 L 630,699 L 629,699 L 628,700 L 626,700 L 625,701 L 624,701 L 623,702 L 621,702 L 620,703 L 619,703 L 618,704 L 616,704 L 615,705 L 614,705 L 613,706 L 612,706 L 611,707 L 609,707 L 608,708 L 607,708 L 606,709 L 604,709 L 603,710 L 602,710 L 601,711 L 599,711 L 598,712 L 597,712 L 596,713 L 595,713 L 594,714 L 593,714 L 592,715 L 590,715 L 589,716 L 587,716 L 586,717 L 585,717 L 584,718 L 583,718 L 582,719 L 581,719 L 580,720 L 578,720 L 577,721 L 576,721 L 575,722 L 573,722 L 572,723 L 571,723 L 570,724 L 568,724 L 567,725 L 566,725 L 565,726 L 564,726 L 563,727 L 561,727 L 560,728 L 559,728 L 558,729 L 556,729 L 555,730 L 554,730 L 553,731 L 552,731 L 551,732 L 550,732 L 549,733 L 547,733 L 546,734 L 545,734 L 544,735 L 542,735 L 541,736 L 540,736 L 539,737 L 538,737 L 537,738 L 535,738 L 534,739 L 533,739 L 532,740 L 530,740 L 529,741 L 528,741 L 527,742 L 526,742 L 525,743 L 524,743 L 524,744 L 544,764 L 544,765 L 545,765 L 549,769 L 549,770 L 550,770 L 552,772 L 552,773 L 553,774 L 554,774 L 555,775 L 555,776 L 622,843 L 622,844 L 623,844 L 629,850 L 629,851 L 631,853 L 632,853 L 633,854 L 633,855 L 634,856 L 626,864 L 626,865 L 613,878 L 613,879 L 602,890 L 602,891 L 589,904 L 589,905 L 577,917 L 577,918 L 565,930 L 565,931 L 552,944 L 552,945 L 542,955 L 542,956 L 529,969 L 529,970 L 516,983 L 516,984 L 506,994 L 506,995 L 493,1008 L 493,1009 L 480,1022 L 480,1023 L 470,1033 L 470,1034 L 469,1035 L 468,1035 L 468,1036 L 458,1046 L 458,1047 L 445,1060 L 445,1061 L 433,1073 L 433,1074 L 420,1087 L 420,1088 L 408,1100 L 408,1101 L 395,1114 L 395,1115 L 396,1115 L 397,1114 L 398,1114 L 399,1113 L 400,1113 L 401,1112 L 403,1112 L 404,1111 L 405,1111 L 406,1110 L 407,1110 L 408,1109 L 410,1109 L 411,1108 L 412,1108 L 413,1107 L 415,1107 L 416,1106 L 417,1106 L 418,1105 L 419,1105 L 420,1104 L 422,1104 L 423,1103 L 424,1103 L 425,1102 L 426,1102 L 427,1101 L 429,1101 L 430,1100 L 431,1100 L 432,1099 L 434,1099 L 435,1098 L 436,1098 L 437,1097 L 438,1097 L 439,1096 L 441,1096 L 442,1095 L 443,1095 L 444,1094 L 446,1094 L 447,1093 L 448,1093 L 449,1092 L 450,1092 L 451,1091 L 453,1091 L 454,1090 L 455,1090 L 456,1089 L 458,1089 L 459,1088 L 460,1088 L 461,1087 L 462,1087 L 463,1086 L 465,1086 L 466,1085 L 467,1085 L 468,1084 L 470,1084 L 471,1083 L 472,1083 L 473,1082 L 474,1082 L 475,1081 L 477,1081 L 478,1080 L 479,1080 L 480,1079 L 481,1079 L 482,1078 L 484,1078 L 485,1077 L 487,1077 L 488,1076 L 489,1076 L 490,1075 L 491,1075 L 492,1074 L 493,1074 L 494,1073 L 496,1073 L 497,1072 L 498,1072 L 499,1071 L 501,1071 L 502,1070 L 503,1070 L 504,1069 L 505,1069 L 506,1068 L 508,1068 L 509,1067 L 510,1067 L 511,1066 L 513,1066 L 514,1065 L 515,1065 L 516,1064 L 517,1064 L 518,1063 L 520,1063 L 521,1062 L 522,1062 L 523,1061 L 524,1061 L 525,1060 L 527,1060 L 528,1059 L 529,1059 L 530,1058 L 532,1058 L 533,1057 L 534,1057 L 535,1056 L 536,1056 L 537,1055 L 539,1055 L 540,1054 L 541,1054 L 542,1053 L 543,1053 L 544,1052 L 546,1052 L 547,1051 L 548,1051 L 549,1050 L 550,1050 L 551,1049 L 553,1049 L 554,1048 L 555,1048 L 556,1047 L 557,1047 L 558,1046 L 560,1046 L 561,1045 L 562,1045 L 563,1044 L 565,1044 L 566,1043 L 567,1043 L 568,1042 L 569,1042 L 570,1041 L 572,1041 L 573,1040 L 574,1040 L 575,1039 L 576,1039 L 577,1038 L 579,1038 L 580,1037 L 581,1037 L 582,1036 L 584,1036 L 585,1035 L 586,1035 L 587,1034 L 589,1034 L 590,1033 L 591,1033 L 592,1032 L 593,1032 L 594,1031 L 596,1031 L 597,1030 L 598,1030 L 599,1029 L 601,1029 L 602,1028 L 603,1028 L 604,1027 L 605,1027 L 606,1026 L 608,1026 L 609,1025 L 610,1025 L 611,1024 L 612,1024 L 613,1023 L 615,1023 L 616,1022 L 617,1022 L 618,1021 L 620,1021 L 621,1020 L 622,1020 L 623,1019 L 624,1019 L 625,1018 L 627,1018 L 628,1017 L 629,1017 L 630,1016 L 632,1016 L 633,1015 L 634,1015 L 635,1014 L 636,1014 L 637,1013 L 639,1013 L 640,1012 L 641,1012 L 642,1011 L 643,1011 L 644,1010 L 646,1010 L 647,1009 L 648,1009 L 649,1008 L 651,1008 L 652,1007 L 653,1007 L 654,1006 L 655,1006 L 656,1005 L 658,1005 L 659,1004 L 660,1004 L 661,1003 L 663,1003 L 664,1002 L 665,1002 L 666,1001 L 667,1001 L 668,1000 L 670,1000 L 671,999 L 672,999 L 673,998 L 674,998 L 675,997 L 677,997 L 678,996 L 679,996 L 680,995 L 681,995 L 682,994 L 684,994 L 685,993 L 686,993 L 687,992 L 689,992 L 690,991 L 691,991 L 692,990 L 693,990 L 694,989 L 696,989 L 697,988 L 698,988 L 699,987 L 700,987 L 701,986 L 703,986 L 704,985 L 705,985 L 706,984 L 707,984 L 708,983 L 710,983 L 711,982 L 712,982 L 713,981 L 715,981 L 716,980 L 717,980 L 718,979 L 719,979 L 720,978 L 722,978 L 723,977 L 724,977 L 725,976 L 726,976 L 727,975 L 729,975 L 730,974 L 731,974 L 732,973 L 734,973 L 735,972 L 736,972 L 737,971 L 738,971 L 739,970 L 741,970 L 742,969 L 743,969 L 744,968 L 745,968 L 737,960 L 737,959 L 735,957 L 734,957 L 732,955 L 732,954 L 654,876 L 654,875 L 653,875 L 651,873 L 651,872 L 645,866 L 644,866 L 643,865 L 643,864 L 635,856 L 635,855 L 636,854 L 636,853 L 641,848 L 641,847 L 645,843 L 645,842 L 649,838 L 649,837 L 654,832 L 654,831 L 659,826 L 659,825 L 663,821 L 663,820 L 667,816 L 667,815 L 672,810 L 672,809 L 676,805 L 676,804 L 682,798 L 682,797 L 685,794 L 685,793 L 686,792 L 687,792 L 687,791 L 690,788 L 690,787 L 695,782 L 695,781 L 701,775 L 701,774 L 704,771 L 704,770 L 708,766 L 708,765 L 713,760 L 713,759 L 718,754 L 718,753 L 722,749 L 722,748 L 726,744 L 726,743 L 731,738 L 731,737 L 736,732 L 736,731 L 741,726 L 741,725 L 745,721 L 745,720 L 750,715 L 750,714 L 754,710 L 754,709 L 758,705 L 758,704 L 764,698 L 764,697 L 768,693 L 768,692 L 772,688 L 772,687 L 777,682 L 777,681 L 783,675 L 783,674 L 786,671 L 786,670 L 790,666 L 790,665 L 795,660 L 795,659 L 799,655 L 799,654 L 805,648 L 805,647 L 809,643 L 809,642 L 813,638 L 813,637 L 818,632 L 818,631 L 823,626 L 823,625 L 827,621 L 827,620 L 831,616 Z" fill="url(#grad)" fill-rule="evenodd"/>
</svg>
