<svg xmlns="http://www.w3.org/2000/svg" version="1.1" xmlns:xlink="http://www.w3.org/1999/xlink"
     xmlns:svgjs="http://svgjs.dev/svgjs" viewBox="0 0 800 800" opacity="0.2">
    <defs>
        <filter id="bbburst-blur-1" x="-100%" y="-100%" width="400%" height="400%">
            <feGaussianBlur in="SourceGraphic" stdDeviation="1"></feGaussianBlur>
        </filter>
        <filter id="bbburst-blur-2" x="-100%" y="-100%" width="400%" height="400%">
            <feGaussianBlur in="SourceGraphic" stdDeviation="2"></feGaussianBlur>
        </filter>
        <filter id="bbburst-blur-3" x="-100%" y="-100%" width="400%" height="400%">
            <feGaussianBlur in="SourceGraphic" stdDeviation="4"></feGaussianBlur>
        </filter>
        <filter id="bbburst-blur-4" x="-100%" y="-100%" width="400%" height="400%">
            <feGaussianBlur in="SourceGraphic" stdDeviation="12"></feGaussianBlur>
        </filter>
        <symbol id="bbburst-shape-1" viewBox="0 0 194 167">
            <path d="m97 0 96.129 166.5H.871L97 0Z"></path>
        </symbol>
        <symbol id="bbburst-shape-2" viewBox="0 0 126 115">
            <path d="m63 0 62.77 43.877-23.976 70.996H24.206L.23 43.877 63 0Z"></path>
        </symbol>
        <symbol id="bbburst-shape-3" viewBox="0 0 131 127">
            <path d="m66 0 66 63.5L66 127 0 63.5 66 0Z"></path>
        </symbol>
        <symbol id="bbburst-shape-13" viewBox="0 0 159 159">
            <path stroke-width="22" d="M11 11h137v137H11z"></path>
        </symbol>
    </defs>
    <use xlink:href="#bbburst-shape-2" width="6.873230499632658" opacity="0.833440167212443"
         transform="matrix(0.9759528219231126,-0.21798185562177716,0.21798185562177716,0.9759528219231126,384.3879325273333,12.015320275705164)"
         fill="#33ff99"></use>
    <use xlink:href="#bbburst-shape-1" width="5.871924857240367" opacity="0.9838183761470406"
         transform="matrix(0.7809597332072598,-0.6245813758901602,0.6245813758901602,0.7809597332072598,146.2772358967251,96.55906956672038)"
         fill="#33ff99"></use>
    <use xlink:href="#bbburst-shape-13" width="16.482733422365264" opacity="0.6283252385330367"
         transform="matrix(0.9709463798912806,0.2392971528790449,-0.2392971528790449,0.9709463798912806,388.80539545194176,-125.22204841200278)"
         fill="none" stroke="#23dcc8" filter="url(#bbburst-blur-1)"></use>
    <use xlink:href="#bbburst-shape-3" width="6.2949672833204495" opacity="0.8500373297888558"
         transform="matrix(0.9995285069409996,0.030704459159804576,-0.030704459159804576,0.9995285069409996,402.201645285049,-67.03726145724232)"
         fill="#23dcc8"></use>
    <use xlink:href="#bbburst-shape-2" width="9.637355794612313" opacity="0.7285275186650018"
         transform="matrix(0.9797574349639059,0.20018833290915772,-0.20018833290915772,0.9797574349639059,583.9852133225097,-48.744824143725)"
         fill="#33ff99" filter="url(#bbburst-blur-1)"></use>
    <use xlink:href="#bbburst-shape-3" width="25.377568756985713" opacity="0.2741915960523015"
         transform="matrix(0.898689713336397,0.8688249531081302,-0.8688249531081302,0.898689713336397,1061.2986830429843,59.13289827600221)"
         fill="#00ccff" filter="url(#bbburst-blur-3)"></use>
    <use xlink:href="#bbburst-shape-2" width="38.35308796637617" opacity="0.10172229580613057"
         transform="matrix(1.6738445580870975,0.5106313693479958,-0.5106313693479958,1.6738445580870975,849.8339445887145,14.447483111699967)"
         fill="#33ff99" filter="url(#bbburst-blur-4)"></use>
    <use xlink:href="#bbburst-shape-2" width="12.878493056168539" opacity="0.7258715421672207"
         transform="matrix(0.8529926828684637,0.5219228707125799,-0.5219228707125799,0.8529926828684637,497.6198564834824,-8.22755691881747)"
         fill="#33ff99" filter="url(#bbburst-blur-1)"></use>
    <use xlink:href="#bbburst-shape-2" width="18.41039282004364" opacity="0.6075621459496954"
         transform="matrix(0.9765782254360913,-0.21516265847979965,0.21516265847979965,0.9765782254360913,380.85645287242204,-148.09166385678924)"
         fill="#00ccff" filter="url(#bbburst-blur-1)"></use>
    <use xlink:href="#bbburst-shape-3" width="17.472717745015782" opacity="0.5696981227097648"
         transform="matrix(0.992436061910204,-0.12276262876040792,0.12276262876040792,0.992436061910204,532.3398029148132,40.519311406117254)"
         fill="#33ff99" filter="url(#bbburst-blur-1)"></use>
    <use xlink:href="#bbburst-shape-1" width="17.12385915568669" opacity="0.48800478086423105"
         transform="matrix(0.9617641063219341,0.2738791773588703,-0.2738791773588703,0.9617641063219341,731.5360234349364,21.894280407596625)"
         fill="#00ccff" filter="url(#bbburst-blur-2)"></use>
    <use xlink:href="#bbburst-shape-2" width="28.124555886961556" opacity="0.29866479988472305"
         transform="matrix(1.1612405324411905,-0.462623416847548,0.462623416847548,1.1612405324411905,112.25416376879701,-361.52576782726567)"
         fill="#00ccff" filter="url(#bbburst-blur-3)"></use>
    <use xlink:href="#bbburst-shape-3" width="7.116186443307266" opacity="0.9022923131882228"
         transform="matrix(0.8671422789249229,0.49806050646572164,-0.49806050646572164,0.8671422789249229,623.3359103035141,85.8865672998532)"
         fill="#23dcc8"></use>
    <use xlink:href="#bbburst-shape-13" width="22.473622340152662" opacity="0.2688505578503605"
         transform="matrix(1.2190143592521014,-0.2765935500643293,0.2765935500643293,1.2190143592521014,591.1269276194406,8.968695088371874)"
         fill="none" stroke="#33ff99" filter="url(#bbburst-blur-3)"></use>
    <use xlink:href="#bbburst-shape-13" width="5.737164410769466" opacity="0.8708351103331761"
         transform="matrix(0.9659185466522495,0.2588462115488772,-0.2588462115488772,0.9659185466522495,448.0565048922593,-11.603933433946054)"
         fill="none" stroke="#33ff99"></use>
    <use xlink:href="#bbburst-shape-3" width="22.74454644125155" opacity="0.4437966716721875"
         transform="matrix(0.9496274993299769,-0.31338093834229097,0.31338093834229097,0.9496274993299769,23.50173967233883,-46.39568915213226)"
         fill="#00ccff" filter="url(#bbburst-blur-2)"></use>
    <use xlink:href="#bbburst-shape-1" width="5.204479785082444" opacity="0.9104916800534648"
         transform="matrix(0.999515689735183,-0.031118900578287857,0.031118900578287857,0.999515689735183,413.05213430515863,-28.575839542587858)"
         fill="#33ff99"></use>
    <use xlink:href="#bbburst-shape-3" width="24.300724178977482" opacity="0.48055294275047244"
         transform="matrix(0.9103273416304987,-0.41388903232623764,0.41388903232623764,0.9103273416304987,451.88800879743064,-7.918022834052749)"
         fill="#23dcc8" filter="url(#bbburst-blur-2)"></use>
    <use xlink:href="#bbburst-shape-2" width="5.663234320636951" opacity="0.903744887864758"
         transform="matrix(0.8166349965732754,0.577154470113302,-0.577154470113302,0.8166349965732754,586.7872548010139,60.214775152052994)"
         fill="#33ff99"></use>
    <use xlink:href="#bbburst-shape-3" width="36.55405553374679" opacity="0.2241359874080563"
         transform="matrix(0.8984683388340298,-0.8690538787168601,0.8690538787168601,0.8984683388340298,-260.95592293733057,-127.27086025532091)"
         fill="#23dcc8" filter="url(#bbburst-blur-3)"></use>
    <use xlink:href="#bbburst-shape-2" width="5.854191286261073" opacity="0.9603509439968568"
         transform="matrix(0.9954909671673469,-0.09485638770383521,0.09485638770383521,0.9954909671673469,346.7151494881497,-10.71686329901678)"
         fill="#23dcc8"></use>
    <use xlink:href="#bbburst-shape-1" width="11.878643151592378" opacity="0.752941956287388"
         transform="matrix(0.7705995059075166,0.6373197011666055,-0.6373197011666055,0.7705995059075166,757.6546782336445,58.93560522068566)"
         fill="#23dcc8" filter="url(#bbburst-blur-1)"></use>
    <use xlink:href="#bbburst-shape-3" width="31.874056191571558" opacity="0.2503896417172876"
         transform="matrix(0.9321754891872037,0.8327958077215551,-0.8327958077215551,0.9321754891872037,455.35440599081994,225.24386021310136)"
         fill="#23dcc8" filter="url(#bbburst-blur-3)"></use>
    <use xlink:href="#bbburst-shape-1" width="18.92859226446558" opacity="0.4579652525304365"
         transform="matrix(0.742245257436456,0.6701283293616896,-0.6701283293616896,0.742245257436456,631.5423639296763,338.9067703739734)"
         fill="#00ccff" filter="url(#bbburst-blur-2)"></use>
    <use xlink:href="#bbburst-shape-3" width="7.299931503211653" opacity="0.8800378314744365"
         transform="matrix(0.7259107640663834,0.6877888939293506,-0.6877888939293506,0.7259107640663834,635.0662242528781,146.05391446342844)"
         fill="#33ff99"></use>
    <use xlink:href="#bbburst-shape-2" width="39.05283345896233" opacity="0.06416512597947555"
         transform="matrix(1.4690300629210182,-0.9510261164838054,0.9510261164838054,1.4690300629210182,-226.96291390718457,191.36514677232844)"
         fill="#33ff99" filter="url(#bbburst-blur-4)"></use>
    <use xlink:href="#bbburst-shape-2" width="25.617527406101978" opacity="0.20919159690746902"
         transform="matrix(1.124800729898516,-0.5452736175717339,0.5452736175717339,1.124800729898516,342.0361660847448,267.19585293776197)"
         fill="#33ff99" filter="url(#bbburst-blur-3)"></use>
    <use xlink:href="#bbburst-shape-1" width="19.554009238444422" opacity="0.5315055870287518"
         transform="matrix(0.9628724908561158,-0.26995660086861967,0.26995660086861967,0.9628724908561158,112.31852143571054,141.80011253952216)"
         fill="#33ff99" filter="url(#bbburst-blur-2)"></use>
    <use xlink:href="#bbburst-shape-1" width="21.853046753406822" opacity="0.5723450747591644"
         transform="matrix(0.7705104750130254,-0.6374273353843574,0.6374273353843574,0.7705104750130254,237.2941780912936,262.7984943879111)"
         fill="#33ff99" filter="url(#bbburst-blur-1)"></use>
    <use xlink:href="#bbburst-shape-2" width="41.45099060722709" opacity="0.13980648409596352"
         transform="matrix(1.249790114589959,-0.02290566465346649,0.02290566465346649,1.249790114589959,89.46106076255461,-371.35295605636657)"
         fill="#33ff99" filter="url(#bbburst-blur-3)"></use>
    <use xlink:href="#bbburst-shape-2" width="40.68244471412473" opacity="0.041422852878172045"
         transform="matrix(1.7064270978048097,-0.38808061002510086,0.38808061002510086,1.7064270978048097,-150.38157140646143,-37.68293995751128)"
         fill="#33ff99" filter="url(#bbburst-blur-4)"></use>
    <use xlink:href="#bbburst-shape-13" width="22.466542381894364" opacity="0.4728009678491718"
         transform="matrix(0.9725287233429144,-0.23278290803450533,0.23278290803450533,0.9725287233429144,182.00672662814097,221.682167731986)"
         fill="none" stroke="#00ccff" filter="url(#bbburst-blur-2)"></use>
    <use xlink:href="#bbburst-shape-3" width="37.998390888297386" opacity="-0.10180644702959762"
         transform="matrix(1.72435418367563,0.29850066874355796,-0.29850066874355796,1.72435418367563,838.969451133476,-644.0496093951741)"
         fill="#33ff99" filter="url(#bbburst-blur-4)"></use>
    <use xlink:href="#bbburst-shape-13" width="6.95270717004066" opacity="0.9359704844975445"
         transform="matrix(0.888256635809485,-0.4593475252359763,0.4593475252359763,0.888256635809485,235.79555006166865,64.13880001768626)"
         fill="none" stroke="#33ff99"></use>
    <use xlink:href="#bbburst-shape-1" width="16.26035273290477" opacity="0.6333277506305643"
         transform="matrix(0.7534954252592673,0.6574531497478402,-0.6574531497478402,0.7534954252592673,507.70421092826643,163.86932618586127)"
         fill="#23dcc8" filter="url(#bbburst-blur-1)"></use>
    <use xlink:href="#bbburst-shape-13" width="27.04858839545963" opacity="0.4662046277097728"
         transform="matrix(0.8221857006086017,0.56921935465578,-0.56921935465578,0.8221857006086017,772.8243599516782,245.8661108415438)"
         fill="none" stroke="#33ff99" filter="url(#bbburst-blur-2)"></use>
    <use xlink:href="#bbburst-shape-2" width="33.944541775708466" opacity="0.2702708506979554"
         transform="matrix(1.1666151532205715,0.4488976322906396,-0.4488976322906396,1.1666151532205715,791.3432306513391,158.55835777281573)"
         fill="#33ff99" filter="url(#bbburst-blur-3)"></use>
    <use xlink:href="#bbburst-shape-13" width="15.10177102268511" opacity="0.7081067621346446"
         transform="matrix(0.8027398558273999,-0.5963293753172026,0.5963293753172026,0.8027398558273999,81.74272287950993,192.1585900235276)"
         fill="none" stroke="#33ff99" filter="url(#bbburst-blur-1)"></use>
    <use xlink:href="#bbburst-shape-13" width="7.341829507881137" opacity="0.7980425881045365"
         transform="matrix(0.981004501177282,-0.19398497021654057,0.19398497021654057,0.981004501177282,248.5532511611236,65.96480881211403)"
         fill="none" stroke="#23dcc8"></use>
    <use xlink:href="#bbburst-shape-1" width="6.84210265587942" opacity="0.8408091248747902"
         transform="matrix(0.7951951553189973,-0.6063535808067729,0.6063535808067729,0.7951951553189973,129.21543133083588,17.070378127093534)"
         fill="#00ccff"></use>
    <use xlink:href="#bbburst-shape-2" width="27.32592572383477" opacity="0.3656079218214484"
         transform="matrix(0.9338695039868726,-0.3576139671815301,0.3576139671815301,0.9338695039868726,512.1103228731895,-67.24306795818376)"
         fill="#33ff99" filter="url(#bbburst-blur-2)"></use>
    <use xlink:href="#bbburst-shape-3" width="4.972270820606596" opacity="0.9532935723310192"
         transform="matrix(0.7463867004150614,-0.6655125043479779,0.6655125043479779,0.7463867004150614,110.97056739655693,104.74178015494346)"
         fill="#33ff99"></use>
    <use xlink:href="#bbburst-shape-2" width="25.641238750032414" opacity="0.1406983951705798"
         transform="matrix(0.9521090273618505,0.8099311081913516,-0.8099311081913516,0.9521090273618505,338.02743991682337,108.04860514431954)"
         fill="#23dcc8" filter="url(#bbburst-blur-3)"></use>
    <use xlink:href="#bbburst-shape-1" width="6.253074343915587" opacity="0.8610645282963281"
         transform="matrix(0.9185973392514046,-0.3951947979417742,0.3951947979417742,0.9185973392514046,177.37192498541702,23.591986832699718)"
         fill="#23dcc8"></use>
    <use xlink:href="#bbburst-shape-3" width="6.154219957398297" opacity="0.9808065894642543"
         transform="matrix(0.8900779414793775,0.4558083567595419,-0.4558083567595419,0.8900779414793775,582.6204273149953,34.47755085932863)"
         fill="#33ff99"></use>
    <use xlink:href="#bbburst-shape-3" width="38.262602069850146" opacity="-0.0969810543433065"
         transform="matrix(1.4784136881922736,0.9363722371822643,-0.9363722371822643,1.4784136881922736,399.63723755837356,142.26655348785414)"
         fill="#33ff99" filter="url(#bbburst-blur-4)"></use>
    <use xlink:href="#bbburst-shape-1" width="14.59199315378036" opacity="0.6390757378000075"
         transform="matrix(0.7295463234654993,0.6839314014709172,-0.6839314014709172,0.7295463234654993,551.9180808286358,216.55801140504974)"
         fill="#00ccff" filter="url(#bbburst-blur-1)"></use>
    <use xlink:href="#bbburst-shape-13" width="6.842361401080122" opacity="0.8478171042347615"
         transform="matrix(0.8795170289778832,-0.47586741403243543,0.47586741403243543,0.8795170289778832,266.48023142955356,16.51270323801009)"
         fill="none" stroke="#00ccff"></use>
    <use xlink:href="#bbburst-shape-13" width="19.250200002191747" opacity="0.5839416284784149"
         transform="matrix(0.9945406242073234,0.10435011644127426,-0.10435011644127426,0.9945406242073234,473.35171311888877,-181.4610833891727)"
         fill="none" stroke="#33ff99" filter="url(#bbburst-blur-1)"></use>
    <use xlink:href="#bbburst-shape-3" width="24.311184280495606" opacity="0.5317970635965761"
         transform="matrix(0.9983275204976848,0.05781143327184289,-0.05781143327184289,0.9983275204976848,310.1319020456912,-185.07233136665693)"
         fill="#33ff99" filter="url(#bbburst-blur-2)"></use>
    <use xlink:href="#bbburst-shape-13" width="18.81101890646618" opacity="0.5827913718003292"
         transform="matrix(0.82001759528263,-0.5723383120383372,0.5723383120383372,0.82001759528263,295.26702145269627,210.96573196651292)"
         fill="none" stroke="#33ff99" filter="url(#bbburst-blur-1)"></use>
    <use xlink:href="#bbburst-shape-2" width="11.12777944965363" opacity="0.7131261280467214"
         transform="matrix(0.7855821397000967,0.6187573852361018,-0.6187573852361018,0.7855821397000967,514.3490674823714,73.3343830635643)"
         fill="#33ff99" filter="url(#bbburst-blur-1)"></use>
    <use xlink:href="#bbburst-shape-3" width="21.099737828686948" opacity="0.5081823068281709"
         transform="matrix(0.9982566423484636,0.059022673670138526,-0.059022673670138526,0.9982566423484636,263.7006260595048,-163.30746891389256)"
         fill="#33ff99" filter="url(#bbburst-blur-2)"></use>
    <use xlink:href="#bbburst-shape-2" width="5.564216576781496" opacity="0.9271352834367098"
         transform="matrix(0.8348522668319172,-0.5504740616646795,0.5504740616646795,0.8348522668319172,159.9960292710941,39.86001051836092)"
         fill="#23dcc8"></use>
    <use xlink:href="#bbburst-shape-2" width="15.338326237429111" opacity="0.7238967598793067"
         transform="matrix(0.9868111769173135,0.1618755729289218,-0.1618755729289218,0.9868111769173135,553.1038792810507,83.00992786756535)"
         fill="#33ff99" filter="url(#bbburst-blur-1)"></use>
    <use xlink:href="#bbburst-shape-13" width="21.939677639054004" opacity="0.15452658710649958"
         transform="matrix(1.1780802258582301,0.41788393297878945,-0.41788393297878945,1.1780802258582301,652.938698933438,291.6191625934222)"
         fill="none" stroke="#00ccff" filter="url(#bbburst-blur-3)"></use>
    <use xlink:href="#bbburst-shape-2" width="14.940617139608083" opacity="0.703326744355815"
         transform="matrix(0.9714965877707463,-0.23705353815076563,0.23705353815076563,0.9714965877707463,418.3147739494563,70.87584424837314)"
         fill="#00ccff" filter="url(#bbburst-blur-1)"></use>
    <use xlink:href="#bbburst-shape-1" width="9.676850148667043" opacity="0.870040841098537"
         transform="matrix(0.8921927776108023,-0.451654788061769,0.451654788061769,0.8921927776108023,272.2048008111131,57.598908215653694)"
         fill="#00ccff"></use>
    <use xlink:href="#bbburst-shape-3" width="19.22694261172959" opacity="0.5143807163739142"
         transform="matrix(0.8970230697591434,-0.44198372404409086,0.44198372404409086,0.8970230697591434,12.65922300605996,129.18684085848184)"
         fill="#33ff99" filter="url(#bbburst-blur-2)"></use>
    <use xlink:href="#bbburst-shape-1" width="10.616085814036811" opacity="0.7739080249464741"
         transform="matrix(0.9159471038156326,-0.4012990194502782,0.4012990194502782,0.9159471038156326,336.26404142500627,31.223939655555398)"
         fill="#33ff99" filter="url(#bbburst-blur-1)"></use>
    <use xlink:href="#bbburst-shape-13" width="15.624186560734119" opacity="0.6406364772754992"
         transform="matrix(0.7925825608067883,-0.6097646138510775,0.6097646138510775,0.7925825608067883,158.1499897020095,-73.7726128287556)"
         fill="none" stroke="#33ff99" filter="url(#bbburst-blur-1)"></use>
    <use xlink:href="#bbburst-shape-2" width="22.759055811216374" opacity="0.36095337830862717"
         transform="matrix(0.9584877209713308,0.28513380849556275,-0.28513380849556275,0.9584877209713308,583.5853547223398,-262.71955019357466)"
         fill="#33ff99" filter="url(#bbburst-blur-2)"></use>
    <use xlink:href="#bbburst-shape-3" width="7.269052112861295" opacity="0.9254357253600114"
         transform="matrix(0.9542492484962479,-0.29901232707757386,0.29901232707757386,0.9542492484962479,286.5985260755255,51.51718235288422)"
         fill="#00ccff"></use>
    <use xlink:href="#bbburst-shape-3" width="14.32756196483195" opacity="0.6599331700257361"
         transform="matrix(0.7744929887319563,0.6325824929643895,-0.6325824929643895,0.7744929887319563,765.4174735707936,-11.831780882526061)"
         fill="#33ff99" filter="url(#bbburst-blur-1)"></use>
    <use xlink:href="#bbburst-shape-13" width="11.300825570030462" opacity="0.759440603638648"
         transform="matrix(0.8719641833699655,-0.48956967116024375,0.48956967116024375,0.8719641833699655,267.7108425641861,-29.869813974644956)"
         fill="none" stroke="#33ff99" filter="url(#bbburst-blur-1)"></use>
    <use xlink:href="#bbburst-shape-3" width="12.705764275436643" opacity="0.7318944421739211"
         transform="matrix(0.8868073636224071,-0.46213926453513543,0.46213926453513543,0.8868073636224071,302.0002470155956,-29.182361307499093)"
         fill="#23dcc8" filter="url(#bbburst-blur-1)"></use>
    <use xlink:href="#bbburst-shape-3" width="21.9228581688133" opacity="0.6646792969286037"
         transform="matrix(0.8562982875502397,0.5164815996127325,-0.5164815996127325,0.8562982875502397,453.94212902890524,4.1843054033654425)"
         fill="#00ccff" filter="url(#bbburst-blur-1)"></use>
    <use xlink:href="#bbburst-shape-2" width="21.87118592657104" opacity="0.5153950647061147"
         transform="matrix(0.9698306192507118,-0.2437797570836861,0.2437797570836861,0.9698306192507118,489.8022068449292,-76.82158000021064)"
         fill="#33ff99" filter="url(#bbburst-blur-2)"></use>
    <use xlink:href="#bbburst-shape-2" width="20.733936570336034" opacity="0.44973438579076774"
         transform="matrix(0.9922877119391109,-0.1239560274236155,0.1239560274236155,0.9922877119391109,512.9769324430463,-172.9330064000169)"
         fill="#33ff99" filter="url(#bbburst-blur-2)"></use>
    <use xlink:href="#bbburst-shape-13" width="7.457250855331246" opacity="0.8712390619674484"
         transform="matrix(0.8391693383259514,0.54387022497429,-0.54387022497429,0.8391693383259514,561.6553488139057,86.24819391834035)"
         fill="none" stroke="#00ccff"></use>
    <use xlink:href="#bbburst-shape-3" width="24.057546837516025" opacity="0.45453159281644184"
         transform="matrix(0.7906581223601059,-0.6122578979041363,0.6122578979041363,0.7906581223601059,246.1395121271942,315.0447467351533)"
         fill="#00ccff" filter="url(#bbburst-blur-2)"></use>
    <use xlink:href="#bbburst-shape-2" width="38.01272682251519" opacity="0.10942001041580363"
         transform="matrix(1.6217833161424164,0.6575096010569783,-0.6575096010569783,1.6217833161424164,922.5104030460077,-537.4219613706418)"
         fill="#00ccff" filter="url(#bbburst-blur-4)"></use>
    <use xlink:href="#bbburst-shape-2" width="8.327373417012401" opacity="0.8423426540574843"
         transform="matrix(0.7859066648529904,0.6183451415994545,-0.6183451415994545,0.7859066648529904,671.6067297320121,17.685145829674866)"
         fill="#00ccff"></use>
    <use xlink:href="#bbburst-shape-1" width="9.723103970403844" opacity="0.8176360395670236"
         transform="matrix(0.7319370653696368,0.6813722421247318,-0.6813722421247318,0.7319370653696368,621.2351582200545,170.66537394793738)"
         fill="#33ff99"></use>
    <use xlink:href="#bbburst-shape-2" width="19.061395871576597" opacity="0.6651096294179697"
         transform="matrix(0.9221612086862733,0.38680577192471105,-0.38680577192471105,0.9221612086862733,603.1659667892145,166.86626655058245)"
         fill="#00ccff" filter="url(#bbburst-blur-1)"></use>
    <use xlink:href="#bbburst-shape-1" width="28.557688326703026" opacity="0.3098224526295521"
         transform="matrix(1.070760983383139,-0.6449580734159182,0.6449580734159182,1.070760983383139,213.00410565955985,279.3070079109852)"
         fill="#00ccff" filter="url(#bbburst-blur-3)"></use>
    <use xlink:href="#bbburst-shape-3" width="29.22341894052941" opacity="0.18756679790895803"
         transform="matrix(0.9476221958351649,0.8151761613053587,-0.8151761613053587,0.9476221958351649,346.8784270260152,-7.157625341932373)"
         fill="#00ccff" filter="url(#bbburst-blur-3)"></use>
    <use xlink:href="#bbburst-shape-2" width="20.027957456712215" opacity="0.30295513254874407"
         transform="matrix(0.9677685034611894,0.7911536663054086,-0.7911536663054086,0.9677685034611894,714.097182875084,-308.60465667670866)"
         fill="#23dcc8" filter="url(#bbburst-blur-3)"></use>
    <use xlink:href="#bbburst-shape-2" width="21.678563049875763" opacity="0.41562545923382643"
         transform="matrix(0.8151139877971959,-0.5793006014992154,0.5793006014992154,0.8151139877971959,416.7676726043301,134.4688428460413)"
         fill="#23dcc8" filter="url(#bbburst-blur-2)"></use>
    <use xlink:href="#bbburst-shape-3" width="19.84761383039408" opacity="0.49012193403745674"
         transform="matrix(0.9249803870073047,-0.38001484662025625,0.38001484662025625,0.9249803870073047,9.851772050568712,49.71722608973505)"
         fill="#00ccff" filter="url(#bbburst-blur-2)"></use>
    <use xlink:href="#bbburst-shape-3" width="8.036149694379876" opacity="0.891076044438856"
         transform="matrix(0.8623198694717642,-0.5063639429443999,0.5063639429443999,0.8623198694717642,237.24280806495977,34.11318945384676)"
         fill="#00ccff"></use>
    <use xlink:href="#bbburst-shape-3" width="12.104215422700582" opacity="0.6006146697968194"
         transform="matrix(0.856895091052295,0.5154908369025379,-0.5154908369025379,0.856895091052295,536.9532220682535,222.03362658116288)"
         fill="#00ccff" filter="url(#bbburst-blur-1)"></use>
    <use xlink:href="#bbburst-shape-3" width="35.512622771902876" opacity="0.22521327298676552"
         transform="matrix(1.2174996435656222,-0.28318654261384424,0.28318654261384424,1.2174996435656222,568.4834314396212,-253.46234494037344)"
         fill="#23dcc8" filter="url(#bbburst-blur-3)"></use>
    <use xlink:href="#bbburst-shape-3" width="6.983140038152478" opacity="0.8464804329317166"
         transform="matrix(0.7114423295700666,0.7027444853543262,-0.7027444853543262,0.7114423295700666,624.69425944083,156.16299115123235)"
         fill="#33ff99"></use>
    <use xlink:href="#bbburst-shape-3" width="17.310274849007687" opacity="0.612026072277446"
         transform="matrix(0.7626337006696948,-0.6468306104405127,0.6468306104405127,0.7626337006696948,294.39990157698537,170.94659945143292)"
         fill="#33ff99" filter="url(#bbburst-blur-1)"></use>
    <use xlink:href="#bbburst-shape-3" width="23.812521976303994" opacity="0.48171956149029527"
         transform="matrix(0.9115417959212541,-0.41120743462230197,0.41120743462230197,0.9115417959212541,273.3296122250773,-187.75805432026652)"
         fill="#23dcc8" filter="url(#bbburst-blur-2)"></use>
    <use xlink:href="#bbburst-shape-3" width="12.17066124202035" opacity="0.7531205579964811"
         transform="matrix(0.7754398240211243,-0.6314214751828511,0.6314214751828511,0.7754398240211243,127.5034165234564,203.75054057908704)"
         fill="#23dcc8" filter="url(#bbburst-blur-1)"></use>
    <use xlink:href="#bbburst-shape-2" width="27.395086378069934" opacity="0.40356159267620995"
         transform="matrix(0.8414834569880579,-0.5402828811052848,0.5402828811052848,0.8414834569880579,47.19718271416821,-166.6035275543833)"
         fill="#33ff99" filter="url(#bbburst-blur-2)"></use>
    <use xlink:href="#bbburst-shape-2" width="23.455916036694116" opacity="0.2519794190505278"
         transform="matrix(0.9780759015104001,-0.7783749295067371,0.7783749295067371,0.9780759015104001,407.7662855865743,-45.52549438441747)"
         fill="#23dcc8" filter="url(#bbburst-blur-3)"></use>
    <use xlink:href="#bbburst-shape-2" width="19.737670693676726" opacity="0.6169701811974575"
         transform="matrix(0.7600277152955217,0.6498906615598269,-0.6498906615598269,0.7600277152955217,511.8820755075466,-10.167043775497064)"
         fill="#23dcc8" filter="url(#bbburst-blur-1)"></use>
    <use xlink:href="#bbburst-shape-3" width="7.271085330634759" opacity="0.9143425150893938"
         transform="matrix(0.9207363338334891,-0.39018534513595676,0.39018534513595676,0.9207363338334891,231.8521686174812,70.68587243953112)"
         fill="#33ff99"></use>
    <use xlink:href="#bbburst-shape-2" width="23.667371416387816" opacity="0.5372055533080217"
         transform="matrix(0.955177029249338,-0.2960352053293817,0.2960352053293817,0.955177029249338,135.83756724039475,180.4870416894289)"
         fill="#00ccff" filter="url(#bbburst-blur-2)"></use>
    <use xlink:href="#bbburst-shape-3" width="28.11751302530339" opacity="0.3543918441388174"
         transform="matrix(0.9037172729783878,-0.4281297589756009,0.4281297589756009,0.9037172729783878,373.1768564996494,288.8779305069865)"
         fill="#33ff99" filter="url(#bbburst-blur-2)"></use>
    <use xlink:href="#bbburst-shape-1" width="19.54197363606363" opacity="0.5506322798707179"
         transform="matrix(0.949215867823158,0.31462554930063913,-0.31462554930063913,0.949215867823158,677.6771282200411,-104.94460871843654)"
         fill="#23dcc8" filter="url(#bbburst-blur-2)"></use>
    <use xlink:href="#bbburst-shape-2" width="26.157963646545607" opacity="0.366425964933239"
         transform="matrix(0.76119019725324,-0.6485287068477181,0.6485287068477181,0.76119019725324,283.5250651301935,-136.6358738569906)"
         fill="#23dcc8" filter="url(#bbburst-blur-2)"></use>
    <use xlink:href="#bbburst-shape-3" width="23.77195938356522" opacity="0.3696788255251857"
         transform="matrix(0.8160128731665712,0.5780337281045435,-0.5780337281045435,0.8160128731665712,877.0830607989951,189.5580601154697)"
         fill="#00ccff" filter="url(#bbburst-blur-2)"></use>
    <use xlink:href="#bbburst-shape-3" width="30.391431597589957" opacity="0.2056277262166485"
         transform="matrix(1.0819240736847515,-0.6260513547476694,0.6260513547476694,1.0819240736847515,437.37862335854857,164.2857949557532)"
         fill="#33ff99" filter="url(#bbburst-blur-3)"></use>
    <use xlink:href="#bbburst-shape-3" width="8.511953245246248" opacity="0.8525267911357177"
         transform="matrix(0.8403658243070494,0.542019631873914,-0.542019631873914,0.8403658243070494,654.2138110581359,113.70426829538019)"
         fill="#33ff99"></use>
    <use xlink:href="#bbburst-shape-3" width="22.21474389723679" opacity="0.26236611991981096"
         transform="matrix(1.211107045857738,0.3093860427907879,-0.3093860427907879,1.211107045857738,398.6778381438763,224.73472725207034)"
         fill="#23dcc8" filter="url(#bbburst-blur-3)"></use>
    <use xlink:href="#bbburst-shape-3" width="26.37765832553784" opacity="0.49348281241505065"
         transform="matrix(0.9938133353606461,0.11106329033190057,-0.11106329033190057,0.9938133353606461,241.84351357097313,-125.85017324123356)"
         fill="#23dcc8" filter="url(#bbburst-blur-2)"></use>
    <use xlink:href="#bbburst-shape-13" width="7.335269243149463" opacity="0.8025436404200473"
         transform="matrix(0.746714327111918,-0.6651448817256249,0.6651448817256249,0.746714327111918,43.87164467142276,120.13806175807957)"
         fill="none" stroke="#00ccff"></use>
    <use xlink:href="#bbburst-shape-3" width="4.8452079077584145" opacity="0.9777719755948787"
         transform="matrix(0.8575782546423844,-0.5143535138059443,0.5143535138059443,0.8575782546423844,182.22231661356605,59.316099400086784)"
         fill="#33ff99"></use>
    <use xlink:href="#bbburst-shape-13" width="13.249124354359676" opacity="0.7422545899578727"
         transform="matrix(0.8107609201975388,-0.5853774254960984,0.5853774254960984,0.8107609201975388,47.99425049522739,107.85783362556998)"
         fill="none" stroke="#00ccff" filter="url(#bbburst-blur-1)"></use>
    <use xlink:href="#bbburst-shape-2" width="5.361601387627861" opacity="0.8901462368210825"
         transform="matrix(0.9762561616735909,-0.21661926690474165,0.21661926690474165,0.9762561616735909,261.49889233392054,14.49373141437269)"
         fill="#23dcc8"></use>
    <use xlink:href="#bbburst-shape-3" width="16.765725100715468" opacity="0.6643117740122892"
         transform="matrix(0.8195062263816961,-0.5730702792168096,0.5730702792168096,0.8195062263816961,146.0313879087853,227.0432864808904)"
         fill="#33ff99" filter="url(#bbburst-blur-1)"></use>
    <use xlink:href="#bbburst-shape-3" width="31.810064722101593" opacity="0.3994075949914314"
         transform="matrix(0.9964114557839001,-0.08464166103408453,0.08464166103408453,0.9964114557839001,89.62003773306455,74.59344051140874)"
         fill="#00ccff" filter="url(#bbburst-blur-2)"></use>
    <use xlink:href="#bbburst-shape-3" width="19.03172965375807" opacity="0.6501652906770286"
         transform="matrix(0.9749274669387431,-0.22252288468471287,0.22252288468471287,0.9749274669387431,243.97533370491772,-134.3204096015684)"
         fill="#33ff99" filter="url(#bbburst-blur-1)"></use>
    <use xlink:href="#bbburst-shape-13" width="21.225280073806424" opacity="0.5430842638493016"
         transform="matrix(0.7841124182933541,0.620618816567906,-0.620618816567906,0.7841124182933541,436.4274322754792,50.36361224432386)"
         fill="none" stroke="#23dcc8" filter="url(#bbburst-blur-2)"></use>
    <use xlink:href="#bbburst-shape-3" width="20.724806840227583" opacity="0.5182516312008407"
         transform="matrix(0.9896211361301817,-0.14370110272509573,0.14370110272509573,0.9896211361301817,510.00197970188344,129.66059427049123)"
         fill="#33ff99" filter="url(#bbburst-blur-2)"></use>
    <use xlink:href="#bbburst-shape-1" width="9.751847404243975" opacity="0.7366049767694436"
         transform="matrix(0.9905410415516899,0.13721678104988977,-0.13721678104988977,0.9905410415516899,422.1084501319327,-112.0590014058779)"
         fill="#33ff99" filter="url(#bbburst-blur-1)"></use>
    <use xlink:href="#bbburst-shape-3" width="18.91493885918272" opacity="0.4236250986534257"
         transform="matrix(0.9821553741218083,-0.18807131914157144,0.18807131914157144,0.9821553741218083,323.7328540141917,-250.30509295733555)"
         fill="#23dcc8" filter="url(#bbburst-blur-2)"></use>
    <use xlink:href="#bbburst-shape-3" width="34.13532345953425" opacity="0.20246912466478884"
         transform="matrix(1.2121456487155957,0.3052915431187826,-0.3052915431187826,1.2121456487155957,176.36580657113228,62.33270523686815)"
         fill="#33ff99" filter="url(#bbburst-blur-3)"></use>
    <use xlink:href="#bbburst-shape-1" width="8.34880642517263" opacity="0.8585243978400976"
         transform="matrix(0.7412950634013297,0.6711792822911168,-0.6711792822911168,0.7412950634013297,727.5682318895925,87.1054929442978)"
         fill="#33ff99"></use>
    <use xlink:href="#bbburst-shape-1" width="14.267707274067817" opacity="0.6784497021793984"
         transform="matrix(0.989651469473369,0.1434920519373852,-0.1434920519373852,0.989651469473369,308.24533400518493,30.48668504149873)"
         fill="#23dcc8" filter="url(#bbburst-blur-1)"></use>
    <use xlink:href="#bbburst-shape-13" width="10.02427392288692" opacity="0.7534944058060584"
         transform="matrix(0.8616552590529464,-0.5074940537054596,0.5074940537054596,0.8616552590529464,232.0119068065266,161.60328058150668)"
         fill="none" stroke="#00ccff" filter="url(#bbburst-blur-1)"></use>
    <use xlink:href="#bbburst-shape-13" width="11.444481744124122" opacity="0.6872079129390816"
         transform="matrix(0.7225809459606474,0.6912863202281787,-0.6912863202281787,0.7225809459606474,556.7955704348492,187.340453207473)"
         fill="none" stroke="#33ff99" filter="url(#bbburst-blur-1)"></use>
    <use xlink:href="#bbburst-shape-2" width="33.35297562421527" opacity="0.3642574327206479"
         transform="matrix(0.8709541832897918,-0.4913642341583397,0.4913642341583397,0.8709541832897918,-96.82976944776581,46.37831518332962)"
         fill="#33ff99" filter="url(#bbburst-blur-2)"></use>
    <use xlink:href="#bbburst-shape-2" width="8.56775567583723" opacity="0.8017784990371736"
         transform="matrix(0.9999609343805274,0.008839101358324587,-0.008839101358324587,0.9999609343805274,389.85086897650547,-88.72081258396724)"
         fill="#33ff99"></use>
    <use xlink:href="#bbburst-shape-3" width="5.212620155321118" opacity="0.9153066289144797"
         transform="matrix(0.7350673604747229,0.6779940822490443,-0.6779940822490443,0.7350673604747229,647.1344152751055,135.21936179294227)"
         fill="#33ff99"></use>
    <use xlink:href="#bbburst-shape-2" width="7.975387477063162" opacity="0.7961008841257903"
         transform="matrix(0.7413547755683065,-0.6711133263034388,0.6711133263034388,0.7413547755683065,210.50565342579745,64.77851812489189)"
         fill="#33ff99"></use>
    <use xlink:href="#bbburst-shape-3" width="19.641886090719602" opacity="0.5426721604040259"
         transform="matrix(0.9439540782379561,0.3300768064828711,-0.3300768064828711,0.9439540782379561,516.7586216660761,-186.56009569747494)"
         fill="#33ff99" filter="url(#bbburst-blur-2)"></use>
    <use xlink:href="#bbburst-shape-1" width="6.417245165263061" opacity="0.8941446136610218"
         transform="matrix(0.9999016777969001,-0.014022650924282693,0.014022650924282693,0.9999016777969001,438.6706975571675,-3.6464490663695983)"
         fill="#23dcc8"></use>
    <use xlink:href="#bbburst-shape-1" width="21.25031618008091" opacity="0.5849860471114197"
         transform="matrix(0.7352402219722669,-0.6778066213856071,0.6778066213856071,0.7352402219722669,-61.86372522769841,150.65026172838287)"
         fill="#00ccff" filter="url(#bbburst-blur-1)"></use>
    <use xlink:href="#bbburst-shape-2" width="23.432998444372934" opacity="0.24859273876599042"
         transform="matrix(1.2223254313782408,-0.26157320162049763,0.26157320162049763,1.2223254313782408,397.9250412553131,-403.1440958437573)"
         fill="#33ff99" filter="url(#bbburst-blur-3)"></use>
    <use xlink:href="#bbburst-shape-2" width="8.598744736939542" opacity="0.755109158967713"
         transform="matrix(0.7910998050645903,0.6116870919242674,-0.6116870919242674,0.7910998050645903,642.2332751087787,-29.263039551002123)"
         fill="#00ccff" filter="url(#bbburst-blur-1)"></use>
    <use xlink:href="#bbburst-shape-1" width="29.41143908152953" opacity="0.12655419910424826"
         transform="matrix(1.239099461633647,-0.16471953186919253,0.16471953186919253,1.239099461633647,686.3066555867748,38.30260017405311)"
         fill="#33ff99" filter="url(#bbburst-blur-3)"></use>
    <use xlink:href="#bbburst-shape-2" width="12.262386235355578" opacity="0.7227862058025369"
         transform="matrix(0.9491570357261756,0.3148029884411826,-0.3148029884411826,0.9491570357261756,459.7393146765164,-90.75771804691055)"
         fill="#33ff99" filter="url(#bbburst-blur-1)"></use>
    <use xlink:href="#bbburst-shape-3" width="6.9710873352921325" opacity="0.9084625258193683"
         transform="matrix(0.9499290769549548,0.31246559611500846,-0.31246559611500846,0.9499290769549548,485.91716847980825,39.423341988306845)"
         fill="#00ccff"></use>
    <use xlink:href="#bbburst-shape-2" width="5.925135914879496" opacity="0.9082632638570338"
         transform="matrix(0.9704568874679795,-0.2412745937017848,0.2412745937017848,0.9704568874679795,310.4239683113001,-27.564517464405867)"
         fill="#33ff99"></use>
    <use xlink:href="#bbburst-shape-2" width="16.12377476564027" opacity="0.5650796830457425"
         transform="matrix(0.733062066626675,-0.6801617502278618,0.6801617502278618,0.733062066626675,-59.32021066425929,38.67255429536624)"
         fill="#23dcc8" filter="url(#bbburst-blur-1)"></use>
    <use xlink:href="#bbburst-shape-3" width="36.673724935922806" opacity="-0.10165504257689939"
         transform="matrix(1.6972115768422489,-0.42658277442091685,0.42658277442091685,1.6972115768422489,543.9469497095145,84.08737480104799)"
         fill="#00ccff" filter="url(#bbburst-blur-4)"></use>
    <use xlink:href="#bbburst-shape-3" width="10.378890562658603" opacity="0.7489723130693848"
         transform="matrix(0.7593059936895626,0.6507337458185997,-0.6507337458185997,0.7593059936895626,705.1361638686229,-8.99659381757533)"
         fill="#00ccff" filter="url(#bbburst-blur-1)"></use>
    <use xlink:href="#bbburst-shape-1" width="9.025442173345008" opacity="0.8241869629317774"
         transform="matrix(0.979169342455264,0.20304531217372646,-0.20304531217372646,0.979169342455264,487.028239778532,-71.02415642909858)"
         fill="#33ff99"></use>
    <use xlink:href="#bbburst-shape-1" width="29.652641685618036" opacity="0.3772524115978797"
         transform="matrix(0.8434063466142244,0.5372762180581294,-0.5372762180581294,0.8434063466142244,882.0298318058426,36.49893299844638)"
         fill="#23dcc8" filter="url(#bbburst-blur-2)"></use>
    <use xlink:href="#bbburst-shape-3" width="9.157616528438108" opacity="0.8736498369352439"
         transform="matrix(0.9999682886718695,-0.007963771132613984,0.007963771132613984,0.9999682886718695,414.1778691916574,52.48791884984661)"
         fill="#23dcc8"></use>
    <use xlink:href="#bbburst-shape-3" width="26.89541146871409" opacity="0.13998411837179547"
         transform="matrix(1.2495222452804453,0.03455659921512645,-0.03455659921512645,1.2495222452804453,30.102976799791843,-223.73140399898261)"
         fill="#23dcc8" filter="url(#bbburst-blur-3)"></use>
    <use xlink:href="#bbburst-shape-3" width="6.651700173389915" opacity="0.8943282430984979"
         transform="matrix(0.956956770257745,-0.2902304943624388,0.2902304943624388,0.956956770257745,285.25540644108776,65.52359022801107)"
         fill="#23dcc8"></use>
    <use xlink:href="#bbburst-shape-3" width="8.956555203170494" opacity="0.882476515117732"
         transform="matrix(0.9988718421028268,0.047487293606874335,-0.047487293606874335,0.9988718421028268,459.2024106102278,28.476381970390833)"
         fill="#33ff99"></use>
    <use xlink:href="#bbburst-shape-2" width="9.603265504395885" opacity="0.8187277213369463"
         transform="matrix(0.9451278204568867,-0.32670078512059775,0.32670078512059775,0.9451278204568867,183.99195150193012,12.258658721077495)"
         fill="#23dcc8"></use>
    <use xlink:href="#bbburst-shape-2" width="15.394358724431054" opacity="0.6062497457522822"
         transform="matrix(0.8591424490064562,0.5117365067250809,-0.5117365067250809,0.8591424490064562,713.6488886418718,-81.89762828399336)"
         fill="#33ff99" filter="url(#bbburst-blur-1)"></use>
    <use xlink:href="#bbburst-shape-2" width="5.061570506676457" opacity="0.918167988687951"
         transform="matrix(0.7238061720463147,0.6900033516640776,-0.6900033516640776,0.7238061720463147,644.1836258224439,87.35586996472364)"
         fill="#00ccff"></use>
    <use xlink:href="#bbburst-shape-3" width="8.959442483087368" opacity="0.8107205872638515"
         transform="matrix(0.9458751276479007,-0.32453080423446334,0.32453080423446334,0.9458751276479007,348.8986159209501,3.901938640657363)"
         fill="#33ff99"></use>
    <use xlink:href="#bbburst-shape-2" width="8.86057345472592" opacity="0.7970976656819677"
         transform="matrix(0.8145197628329248,-0.5801358081989043,0.5801358081989043,0.8145197628329248,254.2264757657834,92.80227429421979)"
         fill="#33ff99"></use>
    <use xlink:href="#bbburst-shape-13" width="12.159820279579407" opacity="0.7446634465869146"
         transform="matrix(0.8461930765537504,0.5328764183115056,-0.5328764183115056,0.8461930765537504,506.24217218086096,111.63560450921784)"
         fill="none" stroke="#33ff99" filter="url(#bbburst-blur-1)"></use>
    <use xlink:href="#bbburst-shape-2" width="11.25315635464634" opacity="0.8113655178100954"
         transform="matrix(0.9997281404408654,-0.02331620060492876,0.02331620060492876,0.9997281404408654,431.3865922613081,-70.87641170645821)"
         fill="#00ccff"></use>
    <use xlink:href="#bbburst-shape-2" width="37.43379259631366" opacity="0.02458168675759198"
         transform="matrix(1.7370669022170346,-0.21236425598983288,0.21236425598983288,1.7370669022170346,530.6773699678334,-652.8930874751422)"
         fill="#23dcc8" filter="url(#bbburst-blur-4)"></use>
    <use xlink:href="#bbburst-shape-13" width="11.1734331006218" opacity="0.8003838187879432"
         transform="matrix(0.9747353984449547,-0.2233627162674097,0.2233627162674097,0.9747353984449547,254.9100351797311,-63.07020968933216)"
         fill="none" stroke="#00ccff"></use>
    <use xlink:href="#bbburst-shape-2" width="8.232629668064842" opacity="0.882692468166482"
         transform="matrix(0.8565133276645277,-0.5161249069101757,0.5161249069101757,0.8565133276645277,216.15782468667675,13.655905923995192)"
         fill="#33ff99"></use>
    <use xlink:href="#bbburst-shape-1" width="7.20218006189384" opacity="0.8241253504608"
         transform="matrix(0.9955503515899479,0.09423108536534615,-0.09423108536534615,0.9955503515899479,461.1459482112318,75.83104949829965)"
         fill="#00ccff"></use>
    <use xlink:href="#bbburst-shape-13" width="29.401267508485375" opacity="0.12407795329896365"
         transform="matrix(1.004600478202831,-0.7438265114895025,0.7438265114895025,1.004600478202831,-69.6965597130548,-352.2805495418538)"
         fill="none" stroke="#33ff99" filter="url(#bbburst-blur-3)"></use>
    <use xlink:href="#bbburst-shape-1" width="20.598456309678625" opacity="0.38726274947804273"
         transform="matrix(0.9586212699122898,0.2846844935569005,-0.2846844935569005,0.9586212699122898,722.1319642676057,182.29680899343305)"
         fill="#23dcc8" filter="url(#bbburst-blur-2)"></use>
    <use xlink:href="#bbburst-shape-1" width="8.985476952137796" opacity="0.8120430841255221"
         transform="matrix(0.8047107555099438,0.5936670783921031,-0.5936670783921031,0.8047107555099438,556.9532862923677,110.69425380644981)"
         fill="#00ccff"></use>
    <use xlink:href="#bbburst-shape-3" width="6.510149488074389" opacity="0.8365285620733144"
         transform="matrix(0.9779218811678059,0.20897079780012248,-0.20897079780012248,0.9779218811678059,538.392256875321,53.37925175808135)"
         fill="#33ff99"></use>
    <use xlink:href="#bbburst-shape-13" width="6.7221040674536" opacity="0.9510116001350717"
         transform="matrix(0.9994984175996089,0.03166880509078118,-0.03166880509078118,0.9994984175996089,401.3491030654907,20.652056405792962)"
         fill="none" stroke="#23dcc8"></use>
    <use xlink:href="#bbburst-shape-3" width="36.407160741074975" opacity="0.24487243787535506"
         transform="matrix(1.0318574226351465,0.7055283547475273,-0.7055283547475273,1.0318574226351465,480.47399891983895,-312.1268538295905)"
         fill="#33ff99" filter="url(#bbburst-blur-3)"></use>
    <use xlink:href="#bbburst-shape-13" width="26.210725778008882" opacity="0.29046559292190954"
         transform="matrix(1.018830722812588,0.7242126471231912,-0.7242126471231912,1.018830722812588,909.1884441345692,-235.48323155131695)"
         fill="none" stroke="#33ff99" filter="url(#bbburst-blur-3)"></use>
    <use xlink:href="#bbburst-shape-3" width="9.214054505594007" opacity="0.8021744519348437"
         transform="matrix(0.9016432150670289,0.43248065011465137,-0.43248065011465137,0.9016432150670289,636.6555075736997,-20.296190374713717)"
         fill="#33ff99"></use>
    <use xlink:href="#bbburst-shape-13" width="16.23633377875605" opacity="0.5671550242792222"
         transform="matrix(0.829880137850466,0.5579417145197978,-0.5579417145197978,0.829880137850466,675.6918066799548,249.06772103925982)"
         fill="none" stroke="#33ff99" filter="url(#bbburst-blur-1)"></use>
    <use xlink:href="#bbburst-shape-3" width="6.254338851229592" opacity="0.9265090294087469"
         transform="matrix(0.7299809958749541,0.6834674430149619,-0.6834674430149619,0.7299809958749541,702.8390559684156,96.60844815898065)"
         fill="#33ff99"></use>
    <use xlink:href="#bbburst-shape-13" width="35.985893876082216" opacity="0.10480011596041283"
         transform="matrix(1.4451712003486499,-0.9869043528543393,0.9869043528543393,1.4451712003486499,-298.2593127935842,131.7106357519133)"
         fill="none" stroke="#23dcc8" filter="url(#bbburst-blur-4)"></use>
    <use xlink:href="#bbburst-shape-1" width="5.640414447702346" opacity="0.9199089418829226"
         transform="matrix(0.996043092494961,-0.08887158090792859,0.08887158090792859,0.996043092494961,355.22249402785553,-33.62384845861055)"
         fill="#23dcc8"></use>
    <use xlink:href="#bbburst-shape-2" width="7.309848606983866" opacity="0.8300039339331879"
         transform="matrix(0.7829273969785245,0.6221130854277475,-0.6221130854277475,0.7829273969785245,717.2368408959817,112.3905359035428)"
         fill="#33ff99"></use>
    <use xlink:href="#bbburst-shape-13" width="12.474203396060332" opacity="0.7527647253180925"
         transform="matrix(0.9836010001294837,0.1803581784790458,-0.1803581784790458,0.9836010001294837,359.68019815246384,-27.309341957789627)"
         fill="none" stroke="#23dcc8" filter="url(#bbburst-blur-1)"></use>
    <use xlink:href="#bbburst-shape-1" width="9.232564495410298" opacity="0.8028579112584907"
         transform="matrix(0.930747425464237,0.36566272710203107,-0.36566272710203107,0.930747425464237,589.1062713229928,101.17584145828448)"
         fill="#33ff99"></use>
    <use xlink:href="#bbburst-shape-2" width="11.968597616484038" opacity="0.7410241614451716"
         transform="matrix(0.946963974886761,0.3213397427438224,-0.3213397427438224,0.946963974886761,636.7311620685309,44.123132648608646)"
         fill="#00ccff" filter="url(#bbburst-blur-1)"></use>
    <use xlink:href="#bbburst-shape-2" width="6.08875823912188" opacity="0.9513374535609871"
         transform="matrix(0.9315593543159733,-0.36358928667716145,0.36358928667716145,0.9315593543159733,250.47714081227744,6.6237072113856925)"
         fill="#00ccff"></use>
    <use xlink:href="#bbburst-shape-2" width="26.000611795621964" opacity="0.17618703604715202"
         transform="matrix(1.128079201473013,0.5384582761960387,-0.5384582761960387,1.128079201473013,639.3031142391316,-426.9186133521567)"
         fill="#23dcc8" filter="url(#bbburst-blur-3)"></use>
    <use xlink:href="#bbburst-shape-3" width="15.930585631285652" opacity="0.6826497930988675"
         transform="matrix(0.8586300079543148,0.5125958539047828,-0.5125958539047828,0.8586300079543148,494.97155715181754,-46.30246522162656)"
         fill="#23dcc8" filter="url(#bbburst-blur-1)"></use>
    <use xlink:href="#bbburst-shape-1" width="8.940617715850834" opacity="0.8494264453038916"
         transform="matrix(0.7214139259381962,-0.6925041136790733,0.6925041136790733,0.7214139259381962,78.36206505034801,60.91383023661996)"
         fill="#33ff99"></use>
    <use xlink:href="#bbburst-shape-1" width="11.386898427005509" opacity="0.8088969235861283"
         transform="matrix(0.9916499954220368,0.12895846842869396,-0.12895846842869396,0.9916499954220368,367.39584474785397,-32.40661247783788)"
         fill="#33ff99"></use>
    <use xlink:href="#bbburst-shape-3" width="6.226606863411755" opacity="0.934918947563516"
         transform="matrix(0.9976250838361584,0.06887809594419626,-0.06887809594419626,0.9976250838361584,436.2187037491287,-26.071449852337253)"
         fill="#33ff99"></use>
    <use xlink:href="#bbburst-shape-3" width="33.66486098718431" opacity="0.2934049560065446"
         transform="matrix(1.0958946428059322,0.6012611178758016,-0.6012611178758016,1.0958946428059322,316.4704972448921,-136.90688491546376)"
         fill="#00ccff" filter="url(#bbburst-blur-3)"></use>
    <use xlink:href="#bbburst-shape-3" width="6.5820963077328685" opacity="0.9434025068477634"
         transform="matrix(0.9320524279738531,-0.3623234349418283,0.3623234349418283,0.9320524279738531,231.10751159695002,42.97548189151951)"
         fill="#33ff99"></use>
    <use xlink:href="#bbburst-shape-3" width="28.074453050489492" opacity="0.347473772293201"
         transform="matrix(0.9997583530706291,-0.02198261734878873,0.02198261734878873,0.9997583530706291,171.19070963858223,-208.96755278777337)"
         fill="#23dcc8" filter="url(#bbburst-blur-2)"></use>
    <use xlink:href="#bbburst-shape-3" width="14.66181268263274" opacity="0.6876630603775362"
         transform="matrix(0.9813131442426037,-0.19241754841150724,0.19241754841150724,0.9813131442426037,452.5429614265442,-23.53517655391812)"
         fill="#00ccff" filter="url(#bbburst-blur-1)"></use>
    <use xlink:href="#bbburst-shape-13" width="8.513813356203025" opacity="0.8695594453970958"
         transform="matrix(0.8895229674092224,-0.45689045782494897,0.45689045782494897,0.8895229674092224,186.29241402802987,98.16996006204806)"
         fill="none" stroke="#00ccff"></use>
    <use xlink:href="#bbburst-shape-2" width="19.990022472131926" opacity="0.5250142617790176"
         transform="matrix(0.8358577213004922,-0.5489461446648011,0.5489461446648011,0.8358577213004922,293.94076558666245,-104.44546768316391)"
         fill="#00ccff" filter="url(#bbburst-blur-2)"></use>
    <use xlink:href="#bbburst-shape-3" width="11.239129170242297" opacity="0.7243014348303791"
         transform="matrix(0.9680753413268708,0.25065939741981075,-0.25065939741981075,0.9680753413268708,561.0686492335797,116.22213064549533)"
         fill="#33ff99" filter="url(#bbburst-blur-1)"></use>
    <use xlink:href="#bbburst-shape-2" width="7.7420896219926405" opacity="0.8902660449642912"
         transform="matrix(0.9573571385127254,0.2889070946493462,-0.2889070946493462,0.9573571385127254,477.11887325780606,-19.153960352110857)"
         fill="#33ff99"></use>
    <use xlink:href="#bbburst-shape-2" width="39.97147932704941" opacity="-0.09789184955876573"
         transform="matrix(1.6821789071982864,-0.48246670784332757,0.48246670784332757,1.6821789071982864,-180.0180390372584,-608.4197668204242)"
         fill="#00ccff" filter="url(#bbburst-blur-4)"></use>
    <use xlink:href="#bbburst-shape-3" width="29.63201178190337" opacity="0.041157922474559405"
         transform="matrix(1.533344800324935,-0.8434178817860607,0.8434178817860607,1.533344800324935,-322.50854398546477,-435.15860080607496)"
         fill="#00ccff" filter="url(#bbburst-blur-4)"></use>
    <use xlink:href="#bbburst-shape-3" width="25.13996098457698" opacity="0.14285697695057253"
         transform="matrix(0.9526520214521867,0.8092923612780873,-0.8092923612780873,0.9526520214521867,605.2542840473984,379.4384734410833)"
         fill="#00ccff" filter="url(#bbburst-blur-3)"></use>
    <use xlink:href="#bbburst-shape-13" width="9.289697180149426" opacity="0.7167662810478075"
         transform="matrix(0.8290071329312662,-0.5592380294195685,0.5592380294195685,0.8290071329312662,192.0413622433387,-54.94638738871953)"
         fill="none" stroke="#00ccff" filter="url(#bbburst-blur-1)"></use>
    <use xlink:href="#bbburst-shape-2" width="23.698144156101097" opacity="0.3385167064930419"
         transform="matrix(0.8800920656202971,0.4748030707906159,-0.4748030707906159,0.8800920656202971,574.949501019856,339.9806150740806)"
         fill="#33ff99" filter="url(#bbburst-blur-2)"></use>
    <use xlink:href="#bbburst-shape-3" width="16.76424554221216" opacity="0.6877289582265341"
         transform="matrix(0.7964867140388394,0.6046560297885171,-0.6046560297885171,0.7964867140388394,715.8827998196059,-38.70710372052986)"
         fill="#23dcc8" filter="url(#bbburst-blur-1)"></use>
    <use xlink:href="#bbburst-shape-1" width="6.472616118608837" opacity="0.847557520666133"
         transform="matrix(0.9271794726807623,0.37461743878178383,-0.37461743878178383,0.9271794726807623,491.6622667030091,-12.830604296540344)"
         fill="#33ff99"></use>
    <use xlink:href="#bbburst-shape-2" width="13.521967110862116" opacity="0.6417344203051101"
         transform="matrix(0.9773882534805394,-0.21145259979073527,0.21145259979073527,0.9773882534805394,452.31224355430754,-63.00024270989269)"
         fill="#00ccff" filter="url(#bbburst-blur-1)"></use>
    <use xlink:href="#bbburst-shape-3" width="6.3610303292258505" opacity="0.9510069908633018"
         transform="matrix(0.8605705128868181,0.5093313188384541,-0.5093313188384541,0.8605705128868181,617.8513804639953,39.95368087403898)"
         fill="#33ff99"></use>
    <use xlink:href="#bbburst-shape-13" width="10.173336518333633" opacity="0.8128839134652611"
         transform="matrix(0.7358013783068054,-0.6771974096833253,0.6771974096833253,0.7358013783068054,118.43476617993093,193.03957657671987)"
         fill="none" stroke="#33ff99"></use>
    <use xlink:href="#bbburst-shape-13" width="30.383259189699764" opacity="0.39866046933159593"
         transform="matrix(0.8965171231536581,0.443009083306752,-0.443009083306752,0.8965171231536581,790.3393494962652,-113.01189471385464)"
         fill="none" stroke="#00ccff" filter="url(#bbburst-blur-2)"></use>
    <use xlink:href="#bbburst-shape-13" width="11.429189438265627" opacity="0.7004503789564689"
         transform="matrix(0.9812978017743432,-0.19249577718184288,0.19249577718184288,0.9812978017743432,271.36280955661067,135.27524406038413)"
         fill="none" stroke="#23dcc8" filter="url(#bbburst-blur-1)"></use>
    <use xlink:href="#bbburst-shape-13" width="13.590810854596612" opacity="0.5737472741388359"
         transform="matrix(0.9511965681828605,-0.3085856261674365,0.3085856261674365,0.9511965681828605,461.5000457325251,8.997352886245153)"
         fill="none" stroke="#00ccff" filter="url(#bbburst-blur-1)"></use>
    <use xlink:href="#bbburst-shape-13" width="19.168987204028515" opacity="0.3928145250490497"
         transform="matrix(0.9935379244823761,-0.11350062825928443,0.11350062825928443,0.9935379244823761,255.91243865072408,261.94806110979124)"
         fill="none" stroke="#33ff99" filter="url(#bbburst-blur-2)"></use>
    <use xlink:href="#bbburst-shape-1" width="13.54403017862157" opacity="0.556929915670749"
         transform="matrix(0.9604162742199143,0.2785688069643449,-0.2785688069643449,0.9604162742199143,464.4212678131819,209.18918012818443)"
         fill="#23dcc8" filter="url(#bbburst-blur-1)"></use>
    <use xlink:href="#bbburst-shape-1" width="9.127905410300452" opacity="0.747302732587311"
         transform="matrix(0.9747880945682644,0.22313263026274857,-0.22313263026274857,0.9747880945682644,404.6989504304318,89.7896774511645)"
         fill="#23dcc8" filter="url(#bbburst-blur-1)"></use>
    <use xlink:href="#bbburst-shape-3" width="5.067053429928171" opacity="0.9228345569692522"
         transform="matrix(0.9625606198101125,0.2710665106404182,-0.2710665106404182,0.9625606198101125,471.5595355557128,18.947908027117137)"
         fill="#33ff99"></use>
    <use xlink:href="#bbburst-shape-2" width="24.613759550511695" opacity="0.17208831300161054"
         transform="matrix(1.0796925484636106,-0.6298920548730189,0.6298920548730189,1.0796925484636106,73.50711863048127,-391.60150311034914)"
         fill="#23dcc8" filter="url(#bbburst-blur-3)"></use>
    <use xlink:href="#bbburst-shape-2" width="11.794228635379833" opacity="0.748664268454949"
         transform="matrix(0.7690471053454144,-0.6391921070850601,0.6391921070850601,0.7690471053454144,63.828534042110334,12.361094248818517)"
         fill="#23dcc8" filter="url(#bbburst-blur-1)"></use>
    <use xlink:href="#bbburst-shape-2" width="10.588430169331426" opacity="0.6492894247834967"
         transform="matrix(0.8206496036575051,0.5714317352202096,-0.5714317352202096,0.8206496036575051,782.0447199486222,68.67253107366713)"
         fill="#33ff99" filter="url(#bbburst-blur-1)"></use>
    <use xlink:href="#bbburst-shape-13" width="18.387537977891146" opacity="0.5596000962683405"
         transform="matrix(0.8739862505728297,-0.48595064956191464,0.48595064956191464,0.8739862505728297,208.80317452732297,252.7353761150278)"
         fill="none" stroke="#23dcc8" filter="url(#bbburst-blur-1)"></use>
    <use xlink:href="#bbburst-shape-3" width="22.25380191843297" opacity="0.37357595364031126"
         transform="matrix(0.8364263429092268,0.5480793490795804,-0.5480793490795804,0.8364263429092268,365.7007716608898,-81.61158480192677)"
         fill="#33ff99" filter="url(#bbburst-blur-2)"></use>
    <use xlink:href="#bbburst-shape-1" width="11.395449785595975" opacity="0.7900733019310029"
         transform="matrix(0.9994048777604334,0.03449478668803627,-0.03449478668803627,0.9994048777604334,421.4650825800709,93.57341805112588)"
         fill="#33ff99"></use>
    <use xlink:href="#bbburst-shape-3" width="12.365403705503626" opacity="0.7731573869785674"
         transform="matrix(0.9129832160791442,0.407997116604741,-0.407997116604741,0.9129832160791442,625.5233410689465,108.38646274152973)"
         fill="#33ff99" filter="url(#bbburst-blur-1)"></use>
    <use xlink:href="#bbburst-shape-13" width="8.917781262623878" opacity="0.7861509756967183"
         transform="matrix(0.9024987403900366,0.43069249307875934,-0.43069249307875934,0.9024987403900366,594.2378025481574,-55.57729723462148)"
         fill="none" stroke="#23dcc8"></use>
    <use xlink:href="#bbburst-shape-2" width="17.87434428834084" opacity="0.48114418716967156"
         transform="matrix(0.7801251972816865,0.6256234303206759,-0.6256234303206759,0.7801251972816865,738.8926144693106,-130.64122242817868)"
         fill="#23dcc8" filter="url(#bbburst-blur-2)"></use>
    <use xlink:href="#bbburst-shape-13" width="16.80678780918543" opacity="0.6682896505285207"
         transform="matrix(0.8246270291433111,-0.5656768183391262,0.5656768183391262,0.8246270291433111,312.31008416915324,108.19138524059287)"
         fill="none" stroke="#33ff99" filter="url(#bbburst-blur-1)"></use>
    <use xlink:href="#bbburst-shape-3" width="41.688311641191596" opacity="0.2726115074013358"
         transform="matrix(1.1296465757478014,0.5351622313852753,-0.5351622313852753,1.1296465757478014,405.95331143811836,207.35194051583596)"
         fill="#33ff99" filter="url(#bbburst-blur-3)"></use>
    <use xlink:href="#bbburst-shape-1" width="8.043764448659012" opacity="0.9145699770337242"
         transform="matrix(0.9942103222556807,-0.10745154777971083,0.10745154777971083,0.9942103222556807,390.0142531063571,13.221084596493995)"
         fill="#33ff99"></use>
    <use xlink:href="#bbburst-shape-2" width="21.386517809632416" opacity="0.44665559519736164"
         transform="matrix(0.7585515043827208,-0.6516130870376309,0.6516130870376309,0.7585515043827208,173.62169428546247,348.9289322880534)"
         fill="#33ff99" filter="url(#bbburst-blur-2)"></use>
    <use xlink:href="#bbburst-shape-3" width="5.557433640784263" opacity="0.9561063862565325"
         transform="matrix(0.9961241065751623,-0.08795887845939618,0.08795887845939618,0.9961241065751623,368.3722298640504,20.50196380023209)"
         fill="#23dcc8"></use>
    <use xlink:href="#bbburst-shape-13" width="9.106912612460611" opacity="0.8566797491321252"
         transform="matrix(0.9829738299814191,0.1837456110269308,-0.1837456110269308,0.9829738299814191,513.6539889228898,-40.582674849074806)"
         fill="none" stroke="#33ff99"></use>
    <use xlink:href="#bbburst-shape-2" width="4.7961566346085505" opacity="0.9380034913526457"
         transform="matrix(0.9982481470979488,0.05916617965959794,-0.05916617965959794,0.9982481470979488,394.8119195834029,-8.279702481605796)"
         fill="#00ccff"></use>
    <use xlink:href="#bbburst-shape-2" width="30.208105803366387" opacity="0.03819576082064857"
         transform="matrix(1.3616073506292994,1.0993295332666453,-1.0993295332666453,1.3616073506292994,1183.4112640067538,-394.9772156221209)"
         fill="#00ccff" filter="url(#bbburst-blur-4)"></use>
    <use xlink:href="#bbburst-shape-2" width="11.463572218246092" opacity="0.7685844246503836"
         transform="matrix(0.9133422182226268,-0.40719281969623605,0.40719281969623605,0.9133422182226268,327.09087056870925,79.20821857689458)"
         fill="#33ff99" filter="url(#bbburst-blur-1)"></use>
    <use xlink:href="#bbburst-shape-3" width="9.442816945615512" opacity="0.849880780666922"
         transform="matrix(0.7377379759841939,-0.6750871638468213,0.6750871638468213,0.7377379759841939,133.8389489531611,175.26543072280504)"
         fill="#00ccff"></use>
    <use xlink:href="#bbburst-shape-2" width="18.638031679756292" opacity="0.5601755392922424"
         transform="matrix(0.9994306177039484,-0.033740782384291935,0.033740782384291935,0.9994306177039484,324.9183041643747,-190.34202771734175)"
         fill="#23dcc8" filter="url(#bbburst-blur-1)"></use>
    <use xlink:href="#bbburst-shape-13" width="3.6768956209421084" opacity="0.9744566876521641"
         transform="matrix(0.7779317888470698,-0.6283487343038083,0.6283487343038083,0.7779317888470698,157.5633799668184,95.01746322930148)"
         fill="none" stroke="#23dcc8"></use>
    <use xlink:href="#bbburst-shape-3" width="10.296309042458207" opacity="0.7182523706220743"
         transform="matrix(0.86171088762655,-0.5073995921814122,0.5073995921814122,0.86171088762655,319.3563372103563,58.16013110126465)"
         fill="#33ff99" filter="url(#bbburst-blur-1)"></use>
    <use xlink:href="#bbburst-shape-3" width="22.994155303936324" opacity="0.5049728882082906"
         transform="matrix(0.7306075588962703,-0.6827976236657777,0.6827976236657777,0.7306075588962703,324.86135170978514,199.35527498352104)"
         fill="#33ff99" filter="url(#bbburst-blur-2)"></use>
    <use xlink:href="#bbburst-shape-13" width="9.501365057394283" opacity="0.7732958011795015"
         transform="matrix(0.9946211713260081,0.1035795614495424,-0.1035795614495424,0.9946211713260081,334.7110253482684,-0.42106632737846894)"
         fill="none" stroke="#00ccff" filter="url(#bbburst-blur-1)"></use>
    <use xlink:href="#bbburst-shape-3" width="13.990406114190693" opacity="0.6413557445181849"
         transform="matrix(0.7114361093811732,0.7027507824745408,-0.7027507824745408,0.7114361093811732,807.4212376665731,204.2680825059213)"
         fill="#33ff99" filter="url(#bbburst-blur-1)"></use>
    <use xlink:href="#bbburst-shape-2" width="5.856881422075157" opacity="0.8849090655780417"
         transform="matrix(0.8872340290402532,-0.46131960473515443,0.46131960473515443,0.8872340290402532,191.30451459700421,-0.625069398624646)"
         fill="#00ccff"></use>
    <use xlink:href="#bbburst-shape-13" width="10.261714491566476" opacity="0.7888812959643559"
         transform="matrix(0.7607292944710079,0.6490692879297576,-0.6490692879297576,0.7607292944710079,622.5425839222512,3.3577383478597653)"
         fill="none" stroke="#33ff99"></use>
    <use xlink:href="#bbburst-shape-3" width="22.593739385753324" opacity="0.1644942066326447"
         transform="matrix(1.2405833617163506,-0.15314347074739523,0.15314347074739523,1.2405833617163506,700.5729733222311,-90.10446628226236)"
         fill="#33ff99" filter="url(#bbburst-blur-3)"></use>
    <use xlink:href="#bbburst-shape-2" width="26.419420435695713" opacity="0.2776065242615263"
         transform="matrix(0.9780360842268342,-0.7784249597425824,0.7784249597425824,0.9780360842268342,-244.72572439422308,73.75414920663343)"
         fill="#33ff99" filter="url(#bbburst-blur-3)"></use>
    <use xlink:href="#bbburst-shape-2" width="29.472227734800338" opacity="0.022596965316179496"
         transform="matrix(1.707121600224704,0.3850140803220653,-0.3850140803220653,1.707121600224704,274.0209186959239,-646.9896227231905)"
         fill="#00ccff" filter="url(#bbburst-blur-4)"></use>
    <use xlink:href="#bbburst-shape-2" width="21.40066649007291" opacity="0.6301328288222292"
         transform="matrix(0.9901250579989045,-0.14018690924143423,0.14018690924143423,0.9901250579989045,167.04048269495073,-1.5720181371567037)"
         fill="#00ccff" filter="url(#bbburst-blur-1)"></use>
    <use xlink:href="#bbburst-shape-3" width="28.990080611066503" opacity="0.1361017118791923"
         transform="matrix(1.0814479257573715,-0.6268734991009581,0.6268734991009581,1.0814479257573715,502.3847455951388,-145.9830784942289)"
         fill="#33ff99" filter="url(#bbburst-blur-3)"></use>
    <use xlink:href="#bbburst-shape-3" width="34.582422883340804" opacity="0.38180838839978826"
         transform="matrix(0.7480615210855022,-0.6636293850269477,0.6636293850269477,0.7480615210855022,-120.32428152049198,249.82073286385992)"
         fill="#33ff99" filter="url(#bbburst-blur-2)"></use>
    <use xlink:href="#bbburst-shape-3" width="28.420048067866762" opacity="0.20512371003574648"
         transform="matrix(1.080740881148101,0.6280916715060203,-0.6280916715060203,1.080740881148101,835.8676405731062,-337.7740847333825)"
         fill="#00ccff" filter="url(#bbburst-blur-3)"></use>
    <use xlink:href="#bbburst-shape-3" width="6.70292648489734" opacity="0.867436852439797"
         transform="matrix(0.9962110522590337,0.08696861133161127,-0.08696861133161127,0.9962110522590337,420.87101520102414,59.93458635015833)"
         fill="#33ff99"></use>
    <use xlink:href="#bbburst-shape-3" width="30.47957750943948" opacity="0.19351282874324893"
         transform="matrix(1.2203592467046225,0.27059805797996145,-0.27059805797996145,1.2203592467046225,483.05729776152907,270.56301068307096)"
         fill="#23dcc8" filter="url(#bbburst-blur-3)"></use>
    <use xlink:href="#bbburst-shape-3" width="8.64681344373733" opacity="0.7965354134343983"
         transform="matrix(0.9590386801632305,0.28327514884078503,-0.28327514884078503,0.9590386801632305,437.9484546952659,-42.4338321956879)"
         fill="#00ccff"></use>
    <use xlink:href="#bbburst-shape-1" width="11.720442550096672" opacity="0.6669920697222602"
         transform="matrix(0.9357989598630762,-0.3525341213544934,0.3525341213544934,0.9357989598630762,348.2223476790131,143.88639173445142)"
         fill="#23dcc8" filter="url(#bbburst-blur-1)"></use>
    <use xlink:href="#bbburst-shape-3" width="6.6715536920346405" opacity="0.8883913558974563"
         transform="matrix(0.8543300527715108,0.5197308543192598,-0.5197308543192598,0.8543300527715108,599.6441649397386,6.585765202212599)"
         fill="#33ff99"></use>
    <use xlink:href="#bbburst-shape-3" width="34.37719995659569" opacity="0.0228803749871479"
         transform="matrix(1.4737949267255643,-0.9436251978184921,0.9436251978184921,1.4737949267255643,358.95046225805925,76.52274978908167)"
         fill="#23dcc8" filter="url(#bbburst-blur-4)"></use>
    <use xlink:href="#bbburst-shape-1" width="14.061904674200491" opacity="0.6015848909585911"
         transform="matrix(0.960761543508622,0.27737565955744975,-0.27737565955744975,0.960761543508622,676.856925718753,-34.50694621200421)"
         fill="#00ccff" filter="url(#bbburst-blur-1)"></use>
    <use xlink:href="#bbburst-shape-2" width="16.813138653589846" opacity="0.618718854165022"
         transform="matrix(0.7941920851865313,-0.6076667934214189,0.6076667934214189,0.7941920851865313,59.995975622819486,233.35106680590633)"
         fill="#33ff99" filter="url(#bbburst-blur-1)"></use>
    <use xlink:href="#bbburst-shape-2" width="12.042079254270448" opacity="0.6806821851467035"
         transform="matrix(0.9528612371572927,-0.3034064315782934,0.3034064315782934,0.9528612371572927,320.05168986885286,-115.04911968155017)"
         fill="#33ff99" filter="url(#bbburst-blur-1)"></use>
    <use xlink:href="#bbburst-shape-3" width="9.336854722703672" opacity="0.8493554052003769"
         transform="matrix(0.9541676642436097,-0.2992725655851104,0.2992725655851104,0.9541676642436097,208.90820484016115,30.72459279829536)"
         fill="#00ccff"></use>
    <use xlink:href="#bbburst-shape-2" width="24.455552317822562" opacity="0.4049479949916993"
         transform="matrix(0.9965126159684985,0.08344223280581543,-0.08344223280581543,0.9965126159684985,235.42728752661338,193.24580359324693)"
         fill="#23dcc8" filter="url(#bbburst-blur-2)"></use>
    <use xlink:href="#bbburst-shape-3" width="15.081185852350217" opacity="0.6529726647530487"
         transform="matrix(0.8399975601839529,0.5425901758095206,-0.5425901758095206,0.8399975601839529,630.8471042458551,214.72946798144488)"
         fill="#33ff99" filter="url(#bbburst-blur-1)"></use>
    <use xlink:href="#bbburst-shape-2" width="13.842607311644592" opacity="0.7719336887601241"
         transform="matrix(0.9663562771751419,-0.2572072035620315,0.2572072035620315,0.9663562771751419,246.44155577861852,107.96907927520715)"
         fill="#00ccff" filter="url(#bbburst-blur-1)"></use>
    <use xlink:href="#bbburst-shape-2" width="29.080603891771858" opacity="0.044776193340168136"
         transform="matrix(1.7425950959371241,0.1608176968367759,-0.1608176968367759,1.7425950959371241,662.1807862003034,68.01287966909672)"
         fill="#33ff99" filter="url(#bbburst-blur-4)"></use>
    <use xlink:href="#bbburst-shape-13" width="8.905492615803627" opacity="0.822545411972473"
         transform="matrix(0.9826414531146294,0.18551489056345233,-0.18551489056345233,0.9826414531146294,444.37776761751593,81.80692946051016)"
         fill="none" stroke="#23dcc8"></use>
    <use xlink:href="#bbburst-shape-1" width="13.178215258596289" opacity="0.7272216585566758"
         transform="matrix(0.8031633368244792,0.5957588894686913,-0.5957588894686913,0.8031633368244792,648.5253401217424,196.58743811235212)"
         fill="#33ff99" filter="url(#bbburst-blur-1)"></use>
    <use xlink:href="#bbburst-shape-3" width="12.252991908431543" opacity="0.6685977938876967"
         transform="matrix(0.71376546397305,-0.7003847959795648,0.7003847959795648,0.71376546397305,95.12606804328976,-28.923528193426904)"
         fill="#33ff99" filter="url(#bbburst-blur-1)"></use>
    <use xlink:href="#bbburst-shape-2" width="21.153126301642658" opacity="0.11600330762487432"
         transform="matrix(0.9723341308411058,0.7855357012901907,-0.7855357012901907,0.9723341308411058,846.7135908120804,-368.5187681224086)"
         fill="#33ff99" filter="url(#bbburst-blur-3)"></use>
    <use xlink:href="#bbburst-shape-1" width="21.912357216966754" opacity="0.43514658422131614"
         transform="matrix(0.8178873083086646,0.5753784414692711,-0.5753784414692711,0.8178873083086646,569.0882286775325,-182.22601165200578)"
         fill="#00ccff" filter="url(#bbburst-blur-2)"></use>
    <use xlink:href="#bbburst-shape-3" width="9.272912193208445" opacity="0.7901244229510567"
         transform="matrix(0.7543277928315648,-0.6564979672183759,0.6564979672183759,0.7543277928315648,211.2355394505734,155.5141864562487)"
         fill="#23dcc8"></use>
    <use xlink:href="#bbburst-shape-3" width="5.330154025952602" opacity="0.9521432755633807"
         transform="matrix(0.952582928271488,-0.30427909025386046,0.30427909025386046,0.952582928271488,297.24982868823025,20.613333147892945)"
         fill="#33ff99"></use>
    <use xlink:href="#bbburst-shape-3" width="6.58005062693375" opacity="0.8708857751752683"
         transform="matrix(0.9930620900396164,0.1175911787769335,-0.1175911787769335,0.9930620900396164,453.9051330521586,-54.820706554945104)"
         fill="#23dcc8"></use>
</svg>